<svg width="16" height="10" viewBox="0 0 16 10" fill="none" xmlns="http://www.w3.org/2000/svg">
<path fill-rule="evenodd" clip-rule="evenodd" d="M9.88697 0.325237C9.51431 0.732839 9.54263 1.36537 9.95023 1.73804L12.4243 4.00001H1C0.447715 4.00001 0 4.44772 0 5.00001C0 5.55229 0.447715 6.00001 1 6.00001H12.4243L9.95023 8.26198C9.54263 8.63464 9.51431 9.26717 9.88697 9.67478C10.2596 10.0824 10.8922 10.1107 11.2998 9.73804L15.6748 5.73804C15.882 5.54859 16 5.28076 16 5.00001C16 4.71925 15.882 4.45142 15.6748 4.26198L11.2998 0.261977C10.8922 -0.110687 10.2596 -0.082365 9.88697 0.325237Z" fill="white"/>
</svg>
