<svg width="95" height="143" viewBox="0 0 95 143" fill="none" xmlns="http://www.w3.org/2000/svg">
<path d="M0.480835 48.7853C3.31536 68.1414 17.818 83.2326 48.7082 98.7296L48.6607 114.393C48.6482 118.662 52.2492 122.132 56.7029 122.143H56.7279C61.1716 122.143 64.78 118.698 64.7925 114.437L64.8537 94.0299C64.8625 91.0948 63.1345 88.4076 60.3949 87.0947C24.3692 69.8364 17.9675 56.9589 16.4567 46.6394C15.3089 38.7986 17.3482 31.7362 22.3572 26.2183C28.4715 19.4806 38.6066 15.4578 49.4669 15.4578C60.7598 15.4578 73.1583 22.0565 80.3203 31.8764C82.8735 35.3781 87.8999 36.2323 91.5534 33.7848C95.2043 31.3409 96.097 26.5224 93.5452 23.0243C83.3463 9.03658 66.044 0 49.4661 0C34.0031 0 19.3178 6.00925 10.1819 16.076C2.01974 25.0706 -1.33603 36.3821 0.480461 48.7874L0.480835 48.7853ZM53.98 128.76H59.2051C62.4546 128.76 65.088 131.285 65.088 134.397V137.363C65.088 140.477 62.4535 143 59.2051 143H53.98C50.7318 143 48.0972 140.476 48.0972 137.363V134.397C48.0972 131.285 50.7304 128.76 53.98 128.76Z" fill="#DC2F39"/>
</svg>
