<svg width="60" height="60" viewBox="0 0 60 60" fill="none" xmlns="http://www.w3.org/2000/svg">
<g filter="url(#filter0_d_877_3750)">
<circle cx="29.9541" cy="26.3095" r="26.3095" fill="#F2FFF5"/>
</g>
<path d="M48.9782 12.1426C47.4628 12.9624 44.4222 14.0797 42.6348 14.402C42.5824 14.4144 42.5396 14.4304 42.4891 14.4427C40.9095 13.0226 38.7452 12.1426 36.3497 12.1426C31.5217 12.1426 27.6068 15.7106 27.6068 20.1108C27.6068 20.3428 27.5854 20.7695 27.6068 20.9962C21.0924 20.9962 16.1342 17.8868 12.5788 13.9133C12.1922 14.7987 12.0232 16.1975 12.0232 17.5114C12.0232 19.9922 14.1506 22.4287 17.4632 23.9391C16.8531 24.0826 16.1809 24.1853 15.4814 24.1853C14.3526 24.1853 13.1578 23.9143 12.064 23.0927C12.064 23.1228 12.064 23.1512 12.064 23.183C12.064 26.6501 16.1012 29.0105 19.6916 29.6674C18.963 30.0588 17.4942 30.0977 16.7773 30.0977C16.2722 30.0977 14.4848 29.887 14.0068 29.8055C15.0054 32.6475 18.6075 34.2447 22.0405 34.3014C19.3555 36.2209 17.4923 36.9327 11.994 36.9327H10.1211C13.5949 38.9619 18.0188 40.4759 22.4524 40.4759C36.8878 40.4759 45.0925 30.4483 45.0925 20.9962C45.0925 20.8439 45.0886 20.5252 45.0828 20.2047C45.0828 20.1728 45.0925 20.1427 45.0925 20.1108C45.0925 20.063 45.077 20.017 45.077 19.9692C45.0712 19.7284 45.0653 19.5035 45.0595 19.3866C46.5943 18.3773 47.9252 17.1183 48.9782 15.684C47.5697 16.2542 46.0581 16.6367 44.4708 16.8102C46.0912 15.9248 48.3934 13.8141 48.9782 12.1426Z" fill="#32794F"/>
<defs>
<filter id="filter0_d_877_3750" x="0.406436" y="0" width="59.0953" height="59.0953" filterUnits="userSpaceOnUse" color-interpolation-filters="sRGB">
<feFlood flood-opacity="0" result="BackgroundImageFix"/>
<feColorMatrix in="SourceAlpha" type="matrix" values="0 0 0 0 0 0 0 0 0 0 0 0 0 0 0 0 0 0 127 0" result="hardAlpha"/>
<feOffset dy="3.2381"/>
<feGaussianBlur stdDeviation="1.61905"/>
<feComposite in2="hardAlpha" operator="out"/>
<feColorMatrix type="matrix" values="0 0 0 0 0 0 0 0 0 0 0 0 0 0 0 0 0 0 0.25 0"/>
<feBlend mode="normal" in2="BackgroundImageFix" result="effect1_dropShadow_877_3750"/>
<feBlend mode="normal" in="SourceGraphic" in2="effect1_dropShadow_877_3750" result="shape"/>
</filter>
</defs>
</svg>
