<svg width="1440" height="113" viewBox="0 0 1440 113" fill="none" xmlns="http://www.w3.org/2000/svg">
<path d="M-199.091 -385.726C-202.57 -398.452 -192.991 -411 -179.799 -411H1445.96C1456.21 -411 1464.8 -403.249 1465.85 -393.052L1515.42 87.4917C1516.74 100.285 1505.81 110.981 1493.05 109.39L1243.38 78.2685C1188.55 71.4346 1133.26 69.1559 1078.06 71.456L861 80.5L501.337 99.0393C450.188 101.676 398.912 100.379 347.961 95.1601L138.417 73.6963C137.142 73.5657 135.857 73.558 134.581 73.6732L-51.8251 90.4952C-61.4743 91.366 -70.3601 85.1954 -72.9148 75.8499L-199.091 -385.726Z" fill="#BEEBC2" fill-opacity="0.5"/>
<path d="M-117.674 -339.131C-116.134 -348.847 -107.758 -356 -97.9207 -356H1857.54C1874.62 -356 1883.84 -335.965 1872.73 -322.99L1538.64 67.0764C1535.04 71.2791 1529.86 73.8027 1524.33 74.0468L1212.06 87.8395C1164.42 89.9436 1116.69 88.5229 1069.26 83.5889C918.607 67.9171 766.637 69.9875 616.469 89.7576L578.17 94.7997C516.525 102.916 454.256 105.264 392.174 101.815L116.5 86.5L-159.893 65.1677C-171.535 64.2691 -179.935 53.6289 -178.107 42.0956L-117.674 -339.131Z" fill="#DDF7E3" fill-opacity="0.5"/>
</svg>
