<svg width="96" height="96" viewBox="0 0 525 525" fill="none" xmlns="http://www.w3.org/2000/svg">
<circle cx="262.5" cy="262.5" r="262.5" fill="#FEFEFE"/>
<circle cx="262.5" cy="262.5" r="261.5" stroke="black" stroke-width="2"/>
<path d="M292.38 258.79L232.98 278.32V192.82H286.87L292.38 258.79Z" fill="#F6A6A9"/>
<path d="M372.4 486.09C364.4 489.33 356.24 492.24 347.93 494.8C341.68 496.74 335.34 498.47 328.93 500.01C305.54 505.65 281.11 508.63 256 508.63C248.94 508.63 241.94 508.4 235.01 507.93C227.92 507.46 220.9 506.75 213.96 505.8C211.14 505.42 208.34 505.01 205.55 504.55C197.6 503.26 189.74 501.65 182 499.76C179.39 499.13 176.79 498.46 174.2 497.74C173.31 497.51 172.42 497.26 171.54 497.01C167.89 495.98 164.26 494.89 160.66 493.72C160.42 493.65 160.17 493.57 159.93 493.49C156.71 492.45 153.51 491.35 150.33 490.2C147.47 489.17 144.63 488.09 141.8 486.97L203.51 283.86L206.08 275.41L215.2 245.4L215.27 245.16L215.34 244.94H323.11L323.83 248.45L341.5 334.89L354.23 397.19L366.75 458.42L371.9 483.62L372.4 486.09Z" fill="#DDDEDF"/>
<path d="M232.34 244.99L225.09 275.02L224.08 279.23L223.55 281.42L191.39 414.73L171.54 497.01C167.89 495.98 164.26 494.89 160.66 493.72C160.42 493.65 160.17 493.57 159.93 493.49C156.71 492.45 153.51 491.35 150.33 490.2C147.47 489.17 144.63 488.09 141.8 486.97C131.94 483.08 122.33 478.69 113 473.85C133.83 370.75 154.74 269.38 158.14 260.89C159.63 257.16 163.8 254.3 169.45 252.1C171.08 251.46 172.84 250.88 174.69 250.35C186.82 246.89 203.01 245.62 215.15 245.17H215.27C220.11 245 224.3 244.95 227.32 244.95C230.34 244.95 232.34 245 232.34 245V244.99Z" fill="#DDDEDF"/>
<path d="M240.33 216.49C273.02 216.49 299.52 189.99 299.52 157.3C299.52 124.61 273.02 98.11 240.33 98.11C207.64 98.11 181.14 124.61 181.14 157.3C181.14 189.99 207.64 216.49 240.33 216.49Z" fill="#F6A6A9"/>
<path opacity="0.1" d="M190.18 506C189.045 505.619 187.918 505.209 186.796 504.748C183.596 503.456 180.433 501.843 177.319 499.95C176.268 499.319 175.222 498.648 174.18 497.927L175.52 472.344L179.097 404L180.707 418.805L182.188 432.437L190.18 506Z" fill="#272223"/>
<path opacity="0.1" d="M381.73 482.14C379.55 483.11 377.36 484.05 375.15 484.96C374.82 485.1 374.49 485.24 374.16 485.38C373.58 485.62 373 485.86 372.41 486.09C364.41 489.33 356.25 492.24 347.94 494.8C328.2 480.83 312.99 461.37 304.21 438.83L299.53 426.82L269.55 339.98L335.97 409.67L348.11 428.89L366.76 458.41L381.74 482.13H381.73V482.14Z" fill="#272223"/>
<path d="M446.75 443.23C429.41 456.73 410.61 468.43 390.61 478.05C388.12 479.25 385.6 480.41 383.07 481.55C382.62 481.75 382.18 481.95 381.73 482.14C379.55 483.11 377.36 484.05 375.15 484.96C374.06 484.54 372.98 484.09 371.91 483.62C360.94 478.82 351.14 471.52 342.49 462.99C330.87 451.5 321.35 437.76 313.88 424.78C310.2 418.39 307.02 412.18 304.33 406.52L304.29 406.43C297.04 391.1 293.45 379.82 293.45 379.82L283.8 340.19L281.15 329.32L266.07 267.44L260.59 244.94L268.77 244.58L291.12 243.6L315.77 242.51C321.45 242.94 326.99 244 332.32 245.66C349.43 250.91 364.31 262.13 374.08 277.57C400.94 320.04 443.95 394.95 446.76 443.23H446.75Z" fill="#DDDEDF"/>
<path d="M165.91 217.37C178.88 212.7 213.21 212.68 228.61 217.88C231.6 218.89 233.41 221.93 232.89 225.04L232.28 228.73C233.62 228.53 234.93 228.15 236.17 227.58C239.84 225.9 247.07 223.62 254.37 227.26C259.47 229.8 263.06 234.59 264.32 240.16C267.33 253.48 259.74 260.85 259.74 260.85L249.63 270.34C241.16 278.28 231.92 285.36 222.05 291.46L221.85 291.58L225.45 269.92C227.48 273.49 232.07 274.66 235.56 272.5C244.38 267.04 258.79 256.1 257.04 243.68C255.82 235.02 251.01 233.18 246.39 233.57C241.22 234.01 236.71 237.26 234.5 241.95C233.97 243.07 233.1 243.99 232.02 244.59L229.42 246.01L221.8 291.92C221.46 293.98 220.14 295.76 218.27 296.68C200.35 305.47 181.01 300.91 174.32 298.86C172.79 298.39 171.48 297.38 170.66 296L169.22 293.61C168.72 292.79 168.42 291.86 168.32 290.91L161.67 224.09C161.38 221.14 163.13 218.38 165.92 217.37H165.91Z" fill="#F9A826"/>
<path d="M227.08 220.92C227.08 222.49 213.59 223.76 196.95 223.76C180.31 223.76 166.82 222.49 166.82 220.92C166.82 219.35 180.31 218.08 196.95 218.08C213.59 218.08 227.08 219.35 227.08 220.92Z" fill="#DEDFE0"/>
<path d="M241.65 283.64C230.31 267.34 229.9 248.17 240.73 240.81C251.56 233.45 269.52 240.69 280.86 257C285.48 263.45 288.42 270.93 289.44 278.82L336.56 348.49L301.98 370.39L259.2 299.39C252.11 295.63 246.09 290.23 241.65 283.65V283.64Z" fill="#F6A6A9"/>
<path d="M269.54 339.99L308.48 304.15L385.47 375.84L313.87 424.78L269.54 339.99Z" fill="#DDDEDF"/>
<path opacity="0.1" d="M378.67 385.78L381.73 409.29L361.33 385.78V362.07L378.67 385.78Z" fill="#272223"/>
<path d="M240.68 216C278.511 216 309.18 185.332 309.18 147.5C309.18 109.669 278.511 79 240.68 79C202.848 79 172.18 109.669 172.18 147.5C172.18 185.332 202.848 216 240.68 216Z" fill="#FFB8B8"/>
<path d="M301.927 166.385C293.403 159.517 281.771 172 281.771 172L274.951 110.196C274.951 110.196 232.325 115.337 205.045 108.48C177.765 101.623 173.502 133.375 173.502 133.375C172.096 120.549 171.811 107.623 172.65 94.7473C174.354 79.2962 196.52 63.8451 235.735 53.5435C274.951 43.2419 295.41 87.8796 295.41 87.8796C322.693 101.612 310.452 173.253 301.927 166.385Z" fill="#2F2E41"/>
</svg>
