<svg width="150" height="150" viewBox="0 0 525 525" fill="none" xmlns="http://www.w3.org/2000/svg">
<circle cx="262.5" cy="262.5" r="262.5" fill="#FEFEFE"/>
<path d="M229.68 68.84C229.68 68.84 174.91 75.02 171.38 159.83C168.44 230.5 162.42 269.89 191.17 284.63C201.45 289.9 213.53 290.36 224.51 286.76L341.88 248.17C341.88 248.17 343.65 120.96 303.01 90.04C262.37 59.12 229.69 68.84 229.69 68.84H229.68Z" fill="#2F2E41"/>
<path d="M294.38 263.79L234.98 283.32V197.82H288.87L294.38 263.79Z" fill="#F6A6A9"/>
<path d="M374.4 491.09C366.4 494.33 358.24 497.24 349.93 499.8C343.68 501.74 337.34 503.47 330.93 505.01C307.54 510.65 283.11 513.63 258 513.63C250.94 513.63 243.94 513.4 237.01 512.93C229.92 512.46 222.9 511.75 215.96 510.8C213.14 510.42 210.34 510.01 207.55 509.55C199.6 508.26 191.74 506.65 184 504.76C181.39 504.13 178.79 503.46 176.2 502.74C175.31 502.51 174.42 502.26 173.54 502.01C169.89 500.98 166.26 499.89 162.66 498.72C162.42 498.65 162.17 498.57 161.93 498.49C158.71 497.45 155.51 496.35 152.33 495.2C149.47 494.17 146.63 493.09 143.8 491.97L205.51 288.86L208.08 280.41L217.2 250.4L217.27 250.16L217.34 249.94H325.11L325.83 253.45L343.5 339.89L356.23 402.19L368.75 463.42L373.9 488.62L374.4 491.09Z" fill="#DDDEDF"/>
<path d="M234.34 249.99L227.09 280.02L226.08 284.23L225.55 286.42L193.39 419.73L173.54 502.01C169.89 500.98 166.26 499.89 162.66 498.72C162.42 498.65 162.17 498.57 161.93 498.49C158.71 497.45 155.51 496.35 152.33 495.2C149.47 494.17 146.63 493.09 143.8 491.97C133.94 488.08 124.33 483.69 115 478.85C135.83 375.75 156.74 274.38 160.14 265.89C161.63 262.16 165.8 259.3 171.45 257.1C173.08 256.46 174.84 255.88 176.69 255.35C188.82 251.89 205.01 250.62 217.15 250.17H217.27C222.11 250 226.3 249.95 229.32 249.95C232.34 249.95 234.34 250 234.34 250V249.99Z" fill="#DDDEDF"/>
<path d="M242.33 221.49C275.02 221.49 301.52 194.99 301.52 162.3C301.52 129.61 275.02 103.11 242.33 103.11C209.64 103.11 183.14 129.61 183.14 162.3C183.14 194.99 209.64 221.49 242.33 221.49Z" fill="#F6A6A9"/>
<path d="M226.15 90.93C226.15 90.93 193.58 223.18 229.8 285.02L178.78 274.18C178.78 274.18 159.01 129.42 198.77 103.11L226.16 90.93H226.15Z" fill="#2F2E41"/>
<path opacity="0.1" d="M215.96 510.8C213.14 510.42 210.34 510.01 207.55 509.55C199.6 508.26 191.74 506.65 184 504.76C181.39 504.13 178.79 503.46 176.2 502.74L179.53 477.2L188.42 408.97L192.42 423.75L196.1 437.36L215.96 510.8Z" fill="#272223"/>
<path opacity="0.1" d="M383.73 487.14C381.55 488.11 379.36 489.05 377.15 489.96C376.82 490.1 376.49 490.24 376.16 490.38C375.58 490.62 375 490.86 374.41 491.09C366.41 494.33 358.25 497.24 349.94 499.8C330.2 485.83 314.99 466.37 306.21 443.83L301.53 431.82L271.55 344.98L337.97 414.67L350.11 433.89L368.76 463.41L383.74 487.13H383.73V487.14Z" fill="#272223"/>
<path d="M448.75 448.23C431.41 461.73 412.61 473.43 392.61 483.05C390.12 484.25 387.6 485.41 385.07 486.55C384.62 486.75 384.18 486.95 383.73 487.14C381.55 488.11 379.36 489.05 377.15 489.96C376.06 489.54 374.98 489.09 373.91 488.62C362.94 483.82 353.14 476.52 344.49 467.99C332.87 456.5 323.35 442.76 315.88 429.78C312.2 423.39 309.02 417.18 306.33 411.52L306.29 411.43C299.04 396.1 295.45 384.82 295.45 384.82L285.8 345.19L283.15 334.32L268.07 272.44L262.59 249.94L270.77 249.58L293.12 248.6L317.77 247.51C323.45 247.94 328.99 249 334.32 250.66C351.43 255.91 366.31 267.13 376.08 282.57C402.94 325.04 445.95 399.95 448.76 448.23H448.75Z" fill="#DDDEDF"/>
<path d="M167.91 222.37C180.88 217.7 215.21 217.68 230.61 222.88C233.6 223.89 235.41 226.93 234.89 230.04L234.28 233.73C235.62 233.53 236.93 233.15 238.17 232.58C241.84 230.9 249.07 228.62 256.37 232.26C261.47 234.8 265.06 239.59 266.32 245.16C269.33 258.48 261.74 265.85 261.74 265.85L251.63 275.34C243.16 283.28 233.92 290.36 224.05 296.46L223.85 296.58L227.45 274.92C229.48 278.49 234.07 279.66 237.56 277.5C246.38 272.04 260.79 261.1 259.04 248.68C257.82 240.02 253.01 238.18 248.39 238.57C243.22 239.01 238.71 242.26 236.5 246.95C235.97 248.07 235.1 248.99 234.02 249.59L231.42 251.01L223.8 296.92C223.46 298.98 222.14 300.76 220.27 301.68C202.35 310.47 183.01 305.91 176.32 303.86C174.79 303.39 173.48 302.38 172.66 301L171.22 298.61C170.72 297.79 170.42 296.86 170.32 295.91L163.67 229.09C163.38 226.14 165.13 223.38 167.92 222.37H167.91Z" fill="#6C63FF"/>
<path d="M229.08 225.92C229.08 227.49 215.59 228.76 198.95 228.76C182.31 228.76 168.82 227.49 168.82 225.92C168.82 224.35 182.31 223.08 198.95 223.08C215.59 223.08 229.08 224.35 229.08 225.92Z" fill="#DEDFE0"/>
<path d="M243.65 288.64C232.31 272.34 231.9 253.17 242.73 245.81C253.56 238.45 271.52 245.69 282.86 262C287.48 268.45 290.42 275.93 291.44 283.82L338.56 353.49L303.98 375.39L261.2 304.39C254.11 300.63 248.09 295.23 243.65 288.65V288.64Z" fill="#F6A6A9"/>
<path d="M271.54 344.99L310.48 309.15L387.47 380.84L315.87 429.78L271.54 344.99Z" fill="#DDDEDF"/>
<path opacity="0.1" d="M380.67 390.78L383.73 414.29L363.33 390.78V367.07L380.67 390.78Z" fill="#272223"/>
<circle cx="262.5" cy="262.5" r="261.5" stroke="black" stroke-width="2"/>
</svg>
