<?xml version="1.0" standalone="no"?>
<!DOCTYPE svg PUBLIC "-//W3C//DTD SVG 20010904//EN"
 "http://www.w3.org/TR/2001/REC-SVG-20010904/DTD/svg10.dtd">
<svg version="1.0" xmlns="http://www.w3.org/2000/svg"
 width="200pt" height="140pt" viewBox="0 0 300.000000 169.000000"
 preserveAspectRatio="xMidYMid meet">
<metadata>
Created by potrace 1.10, written by Peter Selinger 2001-2011
</metadata>
<g transform="translate(0.000000,169.000000) scale(0.100000,-0.100000)"
fill="#ffff" stroke="none">
<path d="M75 1682 c-5 -4 -10 -13 -11 -19 -3 -34 -5 -36 -22 -20 -21 19 -42 6
-42 -25 0 -21 30 -24 48 -6 6 6 22 13 34 15 26 4 34 10 25 19 -4 4 -13 1 -22
-6 -20 -16 -19 -1 1 28 15 21 9 29 -11 14z"/>
<path d="M139 1669 l-24 -20 25 13 c14 7 50 15 80 19 l55 6 -56 2 c-44 1 -62
-4 -80 -20z"/>
<path d="M308 1682 c7 -5 10 -16 7 -25 -4 -9 -2 -24 4 -34 9 -16 10 -15 11 8
0 30 25 59 32 38 3 -10 11 -8 28 4 24 17 24 17 -35 17 -35 0 -55 -4 -47 -8z"/>
<path d="M430 1674 c-14 -7 -24 -20 -22 -29 2 -8 -8 -17 -23 -21 -20 -5 -23
-9 -15 -19 8 -10 7 -16 -7 -25 -16 -10 -16 -11 5 -7 18 4 22 1 22 -18 0 -44
61 -62 68 -20 3 16 1 18 -9 8 -18 -18 -32 -16 -25 2 3 8 -2 18 -10 23 -14 8
-14 14 5 50 23 46 36 55 28 19 -9 -32 8 -56 18 -25 4 12 6 30 6 39 -1 9 9 21
21 27 22 10 22 11 -7 10 -16 0 -41 -6 -55 -14z"/>
<path d="M830 1686 c0 -3 14 -14 31 -26 27 -20 32 -21 47 -7 9 8 27 18 40 22
13 4 21 9 18 13 -3 3 -24 -1 -47 -8 -32 -11 -45 -11 -60 -2 -20 13 -29 15 -29
8z"/>
<path d="M1047 1664 c9 -15 19 -21 21 -15 6 19 -6 41 -23 41 -14 0 -13 -3 2
-26z"/>
<path d="M1165 1681 c-7 -13 2 -31 17 -31 5 0 8 7 4 15 -3 9 0 15 10 15 31 0
28 -33 -6 -62 -19 -15 -32 -29 -29 -31 5 -5 65 20 61 25 -2 1 0 11 3 20 12 30
1 53 -27 56 -14 2 -29 -2 -33 -7z"/>
<path d="M1345 1663 c11 -44 54 -93 99 -114 61 -28 79 -24 56 11 -7 12 -12 12
-22 2 -18 -18 -28 -15 -28 8 0 17 -5 19 -24 14 -21 -5 -24 -3 -19 15 4 16 1
21 -16 21 -22 0 -28 14 -11 25 17 11 11 25 -11 25 -11 0 -17 5 -14 10 3 6 1
10 -5 10 -8 0 -10 -9 -5 -27z"/>
<path d="M1447 1671 c5 -20 53 -71 53 -56 0 4 -8 14 -17 21 -16 13 -15 13 7 5
14 -4 35 -7 48 -5 20 4 22 2 12 -19 -11 -22 -11 -22 5 -2 9 11 20 19 25 18 4
-1 14 4 20 12 7 8 9 15 5 15 -4 0 -1 7 6 17 13 15 12 15 -10 4 -19 -10 -21
-15 -10 -22 8 -5 12 -9 9 -10 -3 0 -13 -2 -22 -4 -10 -2 -21 2 -25 7 -3 6 -1
8 4 5 9 -6 23 12 23 29 0 10 -29 2 -40 -11 -7 -8 -20 -15 -30 -15 -10 0 -23 7
-30 15 -18 22 -39 19 -33 -4z"/>
<path d="M1675 1680 c3 -5 -3 -10 -14 -10 -22 0 -28 -14 -11 -25 18 -11 10
-25 -14 -25 -20 0 -23 -4 -19 -21 5 -18 3 -20 -16 -14 -17 5 -21 2 -21 -14 0
-24 -10 -27 -28 -9 -10 10 -15 10 -22 -2 -13 -20 -12 -30 0 -30 23 0 86 32
112 56 l26 26 7 -22 c4 -12 20 -37 37 -56 28 -31 28 -34 10 -34 -12 0 -28 -10
-36 -22 l-15 -21 -11 28 c-10 27 -36 54 -52 55 -5 0 -8 -10 -8 -23 0 -25 37
-67 60 -67 7 0 18 -7 25 -17 7 -9 19 -14 29 -10 17 7 22 27 6 27 -5 0 -10 -5
-10 -12 0 -9 -3 -9 -11 -1 -7 7 -9 19 -5 28 6 18 38 17 81 0 18 -8 18 -7 6 8
-7 9 -20 17 -28 17 -8 0 -12 4 -9 9 3 5 -1 15 -10 22 -8 7 -24 30 -35 50 l-19
38 38 4 c37 4 37 4 -7 5 -37 2 -42 5 -36 20 15 36 17 52 6 52 -7 0 -9 -4 -6
-10z"/>
<path d="M1800 1675 c-7 -8 -10 -26 -8 -39 4 -19 0 -26 -16 -30 -17 -3 -16 -4
4 -3 14 0 35 -4 47 -11 37 -21 39 -13 4 17 -26 21 -32 32 -27 49 4 12 14 22
23 22 9 0 13 -6 9 -15 -3 -8 -2 -15 3 -15 13 0 20 11 14 26 -7 18 -37 18 -53
-1z"/>
<path d="M1956 1675 c-8 -9 -12 -23 -9 -32 5 -14 8 -14 11 -2 3 7 11 22 20 32
19 21 -1 23 -22 2z"/>
<path d="M2044 1682 c5 -8 -1 -12 -16 -12 -27 0 -48 -17 -48 -39 0 -12 3 -12
18 1 42 37 60 40 101 17 37 -20 39 -20 65 -4 14 10 26 24 26 31 0 19 -6 18
-30 -6 -19 -19 -22 -19 -58 -4 -65 28 -66 28 -58 16z"/>
<path d="M2215 1663 c3 -27 12 -39 21 -30 4 4 1 13 -6 22 -14 17 0 21 17 4 8
-8 14 -6 21 7 9 17 6 19 -23 20 -29 0 -33 -3 -30 -23z"/>
<path d="M2387 1683 c12 -2 23 -11 25 -19 2 -12 7 -11 20 6 18 20 17 20 -25
19 -23 -1 -32 -4 -20 -6z"/>
<path d="M2465 1680 c3 -5 15 -10 26 -10 34 0 59 -19 59 -45 0 -14 5 -25 11
-25 6 0 8 -7 5 -16 -4 -9 -2 -13 5 -8 6 4 8 19 5 36 -5 25 -4 28 8 19 8 -6 19
-25 26 -42 11 -26 10 -32 -6 -44 -14 -11 -15 -14 -4 -15 10 0 11 -3 2 -12 -8
-8 -15 -8 -27 2 -8 7 -15 8 -15 2 0 -5 6 -15 14 -21 21 -18 56 3 56 33 0 19 4
23 20 19 11 -3 20 0 20 6 0 6 -7 11 -15 11 -18 0 -20 20 -2 20 6 1 0 7 -15 16
-17 9 -25 20 -22 29 4 9 0 15 -8 15 -7 0 -31 9 -53 20 -41 21 -101 28 -90 10z"/>
<path d="M2594 1674 c21 -8 45 -19 52 -25 9 -7 13 -5 17 8 3 13 8 9 21 -19 20
-48 30 -49 23 -3 -5 30 -3 35 13 35 10 0 22 5 25 10 4 6 -29 10 -92 9 -97 0
-98 -1 -59 -15z"/>
<path d="M2783 1680 c-13 -5 -23 -11 -23 -12 0 -2 29 -3 65 -3 55 0 63 2 48
13 -19 14 -58 15 -90 2z"/>
<path d="M2940 1682 c0 -4 4 -12 10 -18 11 -11 1 -56 -11 -48 -5 3 -9 16 -9
30 0 13 -5 24 -10 24 -6 0 -8 -11 -4 -27 10 -43 23 -63 41 -63 12 0 14 7 9 31
-5 27 -4 30 9 19 19 -15 30 -7 21 15 -3 9 -11 13 -17 10 -6 -4 -13 2 -16 14
-5 20 -23 30 -23 13z"/>
<path d="M975 1670 c-3 -5 -1 -10 6 -10 7 0 23 -10 36 -22 19 -17 23 -19 23
-5 0 33 -50 61 -65 37z"/>
<path d="M250 1660 c-14 -4 -41 -8 -61 -9 -47 -1 -84 -39 -75 -76 5 -20 12
-26 29 -23 21 3 38 38 18 38 -6 0 -8 -7 -5 -15 4 -9 0 -15 -10 -15 -19 0 -22
43 -3 58 6 5 41 14 76 21 36 6 69 15 75 21 12 12 -7 12 -44 0z"/>
<path d="M564 1648 c5 -21 3 -26 -8 -22 -8 3 -17 0 -21 -7 -6 -9 -1 -10 19 -7
14 3 29 1 32 -3 7 -12 24 -11 24 0 0 6 -12 23 -26 38 l-25 28 5 -27z"/>
<path d="M2432 1648 c-5 -7 -13 -24 -16 -38 l-7 -25 25 28 c26 29 33 47 17 47
-5 0 -13 -6 -19 -12z"/>
<path d="M641 1624 c-12 -15 -21 -32 -21 -38 0 -16 48 -37 57 -24 4 7 1 8 -8
3 -8 -5 -11 -4 -6 1 5 5 12 9 15 9 4 0 18 8 32 17 14 8 34 20 45 26 19 10 19
11 2 17 -25 10 -70 -11 -90 -43 -11 -18 -17 -22 -17 -11 0 9 9 28 21 43 16 21
17 26 5 26 -8 0 -24 -12 -35 -26z"/>
<path d="M936 1634 c-21 -20 -21 -21 17 -20 17 0 40 -4 50 -8 14 -7 16 -5 10
10 -13 36 -50 45 -77 18z"/>
<path d="M2349 1624 c30 -38 26 -62 -4 -26 -28 33 -51 42 -80 32 -20 -8 -20
-8 0 -16 11 -4 32 -15 46 -25 14 -10 29 -16 32 -13 3 3 8 0 13 -7 5 -8 3 -10
-5 -4 -10 6 -11 3 -2 -14 14 -24 23 -28 14 -5 -4 10 2 17 16 21 17 4 20 10 15
27 -9 28 -34 56 -51 56 -11 0 -9 -7 6 -26z"/>
<path d="M2736 1639 c3 -5 36 -9 73 -9 55 0 71 -4 86 -20 14 -16 15 -22 5 -35
-13 -15 -30 -12 -30 6 0 6 5 7 12 3 7 -5 8 -3 3 5 -5 9 -10 10 -18 2 -15 -15
16 -46 37 -38 23 9 20 53 -5 76 -18 17 -35 20 -95 19 -41 0 -71 -4 -68 -9z"/>
<path d="M1894 1618 c3 -13 6 -27 6 -31 0 -5 4 -5 10 -2 5 3 18 1 27 -5 16
-10 15 -10 -4 -5 -12 3 -24 1 -28 -5 -3 -6 -10 -8 -15 -5 -5 3 -11 1 -15 -4
-3 -6 -18 -5 -38 3 -17 7 -53 16 -79 19 l-48 7 36 -50 c20 -28 46 -53 59 -56
22 -6 22 -6 5 -42 l-18 -37 26 -17 c15 -10 34 -18 43 -18 12 0 15 -7 11 -25
-5 -27 15 -85 29 -85 5 0 9 9 9 20 0 29 46 72 73 70 12 -1 36 -2 52 -1 29 2
29 2 11 16 -20 15 -16 19 17 16 9 -1 18 4 18 11 2 23 0 52 -7 80 -10 45 3 80
29 76 22 -3 38 -38 17 -38 -6 0 -8 5 -4 12 4 7 3 8 -5 4 -14 -9 -5 -26 14 -26
18 0 24 21 13 43 -10 20 -48 23 -66 5 -15 -15 -16 -73 -1 -100 7 -13 7 -18 1
-14 -6 3 -16 22 -22 41 -9 28 -9 41 4 66 l16 31 -30 -4 c-16 -2 -27 -1 -24 4
3 4 1 8 -5 8 -5 0 -13 -5 -16 -11 -5 -7 -12 -6 -23 3 -10 8 -29 20 -44 28 -16
7 -28 17 -28 22 0 5 5 6 12 2 7 -4 8 -3 4 4 -13 21 -29 13 -22 -10z m56 -98
c1 10 3 11 7 2 2 -6 10 -9 16 -5 6 4 8 0 4 -10 -7 -20 4 -22 21 -5 8 8 15 8
27 -2 20 -17 19 -40 -2 -39 -11 0 -13 3 -5 6 17 7 15 23 -3 23 -24 0 -29 -27
-11 -56 l17 -25 -45 2 c-27 2 -51 -3 -62 -12 -10 -8 -15 -9 -11 -2 5 8 -2 15
-20 19 -48 10 -49 11 -8 18 22 4 50 11 61 16 14 5 26 4 34 -3 7 -7 -2 8 -19
32 -17 24 -31 53 -30 65 0 17 3 16 14 -9 8 -16 15 -23 15 -15z m-112 18 c8 -8
9 -15 0 -25 -9 -11 -14 -11 -29 3 -11 10 -19 21 -19 26 0 12 34 10 48 -4z m92
-45 c17 -30 18 -34 4 -22 -16 12 -17 12 -11 -3 5 -15 1 -18 -26 -17 -30 1 -31
1 -7 9 14 4 18 8 9 9 -9 1 -24 10 -34 21 -17 19 -17 20 0 20 10 0 27 -7 37
-17 10 -9 18 -11 18 -5 0 6 -4 14 -10 17 -10 6 -14 25 -6 25 2 0 14 -17 26
-37z m13 -103 c-3 -11 0 -20 6 -20 6 0 11 5 11 10 0 6 5 10 10 10 6 0 10 -7
10 -15 0 -9 -9 -15 -25 -15 -18 0 -25 5 -25 18 0 16 8 32 16 32 1 0 0 -9 -3
-20z"/>
<path d="M2012 1628 c-7 -7 -12 -18 -12 -26 0 -12 3 -12 15 -2 8 7 31 10 50 8
19 -2 35 -1 35 2 0 14 -26 30 -50 30 -14 0 -31 -5 -38 -12z"/>
<path d="M1287 1613 l52 -4 -30 -49 c-17 -27 -42 -59 -57 -70 l-27 -21 25 6
c53 15 75 11 78 -12 2 -16 -2 -23 -13 -23 -10 0 -13 5 -9 12 4 7 3 8 -5 4 -9
-6 -9 -11 -1 -21 16 -19 40 -7 40 19 0 27 -18 46 -42 46 -16 0 -13 8 17 51 19
28 35 55 35 60 0 5 -26 8 -57 7 l-58 -2 52 -3z"/>
<path d="M57 1589 c-3 -12 0 -22 8 -25 19 -8 35 3 35 23 0 13 -2 14 -17 2 -10
-8 -14 -9 -10 -2 4 6 3 14 -2 17 -5 3 -11 -3 -14 -15z"/>
<path d="M745 1596 c-17 -7 -43 -28 -58 -45 -62 -74 -12 -195 95 -230 l33 -11
-3 -61 c-5 -73 9 -109 56 -150 31 -28 41 -31 80 -26 47 5 85 28 110 65 l14 22
-37 -16 c-71 -30 -144 8 -165 85 -5 20 -14 42 -19 50 -11 18 -2 -78 10 -101
12 -23 11 -27 -8 -24 -33 5 -44 86 -18 137 14 26 14 30 1 35 -8 3 -19 4 -23 1
-16 -8 -88 38 -110 72 -14 21 -23 49 -23 72 0 40 14 60 24 34 3 -8 1 -15 -4
-15 -12 0 -13 -27 -1 -32 4 -1 12 -14 16 -27 5 -18 4 -22 -5 -16 -9 5 -11 4
-6 -4 6 -9 11 -9 21 -1 9 7 16 6 24 -3 6 -8 8 -17 4 -20 -3 -4 -2 -7 4 -7 21
0 22 15 2 36 -11 12 -23 40 -26 62 -5 35 -1 44 31 79 20 22 36 43 36 47 0 10
-22 6 -55 -8z m164 -468 c32 -20 28 -40 -6 -27 -32 12 -53 28 -53 40 0 11 33
4 59 -13z"/>
<path d="M1068 1594 c-16 -8 -28 -20 -28 -26 0 -6 -8 -4 -19 6 -21 19 -91 34
-91 19 0 -12 35 -45 41 -39 7 8 3 -56 -5 -82 -4 -12 -12 -20 -17 -17 -5 3 -6
0 -3 -8 3 -8 1 -18 -5 -22 -6 -3 -11 -11 -11 -17 0 -6 9 -3 20 7 24 22 27 10
3 -13 -16 -16 -14 -17 28 -23 40 -5 42 -6 14 -11 -26 -4 -25 -5 12 -7 34 -1
41 2 37 14 -4 8 -1 15 6 15 6 0 8 -5 4 -11 -4 -7 -1 -10 7 -7 8 3 13 12 13 21
-1 9 2 14 7 11 17 -10 9 -35 -13 -43 l-23 -8 22 -7 c12 -4 24 -14 27 -22 3 -8
10 -13 15 -10 5 3 12 -1 15 -10 3 -8 2 -12 -4 -9 -6 3 -10 -3 -10 -14 0 -12 2
-21 5 -21 12 0 36 65 32 86 -2 14 1 24 7 24 6 0 28 11 47 24 29 20 39 22 50
13 11 -10 11 -9 0 5 -7 10 -17 15 -22 12 -5 -3 -13 6 -19 20 -8 23 -4 31 36
72 74 76 74 82 -1 69 -35 -5 -69 -15 -76 -22 -9 -9 -17 -5 -36 18 -28 33 -29
33 -65 13z m162 -54 c0 -15 -38 -41 -45 -30 -4 7 -14 1 -27 -15 -23 -29 -64
-35 -54 -7 5 14 3 13 -9 -3 -15 -19 -14 -20 32 -26 l48 -6 -47 -1 c-26 -1 -49
1 -52 6 -2 4 7 25 21 47 15 24 22 31 18 17 -6 -21 -4 -23 17 -17 12 4 32 17
42 30 18 20 56 24 56 5z m-172 -73 c-15 -21 -17 -27 -5 -18 11 9 17 10 17 2 0
-7 20 -11 50 -11 28 0 50 -4 50 -9 0 -4 -12 -6 -26 -3 -18 3 -25 1 -20 -6 9
-15 -12 -26 -27 -14 -7 5 -31 9 -55 8 -47 -1 -48 -1 -27 20 18 18 20 50 4 60
-6 3 -16 1 -22 -5 -8 -8 -8 -11 2 -11 7 0 9 -5 5 -11 -10 -16 -28 6 -21 25 7
17 47 22 47 6 0 -5 5 -10 11 -10 6 0 8 7 5 16 -3 8 -2 12 4 9 6 -3 10 0 10 7
0 8 5 6 11 -5 8 -13 5 -25 -13 -50z"/>
<path d="M2237 1574 c19 -14 37 -41 44 -64 10 -33 9 -44 -8 -79 -11 -22 -16
-38 -10 -34 6 4 7 1 3 -8 -4 -8 4 -1 18 14 14 15 26 35 26 43 0 8 5 14 10 14
6 0 10 10 10 23 0 18 -2 19 -10 7 -5 -8 -10 -10 -10 -5 0 6 4 16 9 23 11 18
21 -7 21 -52 0 -27 -29 -88 -30 -62 0 5 -9 1 -20 -9 -15 -14 -23 -16 -31 -8
-13 13 -39 6 -39 -9 0 -5 10 -6 23 -3 18 5 19 4 7 -5 -12 -9 -10 -10 9 -5 15
5 21 3 17 -3 -3 -6 -21 -13 -39 -17 -62 -12 -69 -16 -58 -29 17 -21 24 -92 12
-129 -14 -43 -54 -82 -76 -73 -9 3 -13 2 -10 -4 3 -6 -1 -10 -9 -10 -10 0 -13
6 -10 15 4 8 12 15 18 15 24 0 56 44 49 68 -5 23 -6 22 -24 -7 -10 -16 -28
-35 -40 -41 -22 -12 -90 -9 -124 5 -19 9 -19 8 -4 -15 38 -58 133 -81 181 -44
51 38 63 65 65 142 l2 73 50 25 c28 14 60 39 72 56 29 40 36 106 15 145 -19
38 -73 73 -112 73 l-29 0 32 -26z"/>
<path d="M2719 1585 c-37 -20 -44 -44 -19 -69 19 -19 21 -19 37 -3 14 14 15
21 6 36 -10 16 -9 20 10 25 12 3 26 0 32 -6 7 -8 5 -9 -7 -5 -12 4 -15 2 -11
-9 3 -9 13 -14 23 -11 14 4 20 -3 25 -29 7 -38 25 -46 25 -11 0 18 2 19 10 7
5 -8 10 -34 10 -58 0 -29 4 -42 13 -40 6 1 24 -10 39 -25 15 -15 37 -27 49
-27 20 0 19 2 -9 34 -16 19 -35 52 -42 73 -19 57 -48 93 -94 114 -49 22 -63
23 -97 4z m128 -37 c19 -21 77 -138 68 -138 -6 0 -45 71 -45 83 0 23 -32 60
-40 47 -5 -8 -9 -5 -13 9 -7 27 4 27 30 -1z"/>
<path d="M510 1580 c0 -5 9 -10 19 -10 11 0 32 -5 47 -10 26 -10 26 -11 8 -25
-10 -8 -14 -14 -9 -14 6 0 19 7 30 15 20 15 20 15 -4 35 -24 20 -91 27 -91 9z"/>
<path d="M2420 1565 c-13 -14 -22 -25 -19 -25 21 2 107 38 102 43 -15 16 -61
6 -83 -18z"/>
<path d="M214 1561 c-46 -28 -71 -69 -83 -136 -6 -33 -20 -73 -32 -88 -11 -16
-19 -30 -17 -32 9 -8 50 18 65 43 10 16 23 27 29 25 7 -2 9 15 6 54 -4 53 -3
56 11 38 15 -19 15 -18 22 17 5 26 11 35 21 31 10 -3 14 2 14 18 0 19 -2 21
-10 9 -5 -8 -10 -10 -10 -4 0 6 8 18 17 25 14 12 16 12 8 0 -6 -11 -4 -13 10
-8 14 6 16 3 13 -11 -6 -21 8 -52 22 -52 11 0 40 29 40 41 0 19 -41 49 -67 49
-16 0 -42 -9 -59 -19z m-46 -81 c-5 -17 -7 -43 -4 -58 5 -18 4 -23 -3 -13 -7
12 -10 11 -14 -5 -2 -10 -2 -1 1 21 5 42 18 85 26 85 3 0 0 -14 -6 -30z"/>
<path d="M886 1554 c-20 -19 -20 -28 -1 -44 15 -13 39 -5 29 11 -3 5 -10 7
-15 4 -5 -4 -9 0 -9 8 0 20 29 30 46 16 7 -6 15 -27 17 -47 l4 -37 1 37 c2 37
-17 68 -43 68 -7 0 -21 -7 -29 -16z"/>
<path d="M770 1528 c-11 -18 -20 -43 -20 -55 0 -28 37 -69 70 -78 25 -7 25 -7
-3 15 -43 35 -51 66 -29 111 24 47 10 52 -18 7z"/>
<path d="M2223 1540 c26 -38 22 -92 -9 -124 -20 -19 -23 -26 -11 -26 17 0 42
22 58 51 15 28 2 72 -28 100 l-26 24 16 -25z"/>
<path d="M488 1536 c-25 -19 -24 -40 1 -26 11 5 31 10 44 10 14 0 30 7 37 15
11 13 7 15 -26 15 -22 0 -47 -7 -56 -14z"/>
<path d="M1381 1524 c-21 -27 -29 -74 -12 -74 15 0 51 51 51 71 0 30 -17 31
-39 3z"/>
<path d="M2440 1540 c-13 -9 -8 -14 12 -11 4 0 26 -6 49 -14 50 -18 63 -11 30
16 -25 20 -67 25 -91 9z"/>
<path d="M811 1517 c-23 -23 -8 -88 24 -101 13 -4 12 0 -4 20 -26 33 -26 40
-1 47 23 6 27 32 6 40 -7 3 -19 0 -25 -6z"/>
<path d="M1482 1488 c-11 -18 -24 -46 -27 -61 -7 -28 -8 -28 -22 -7 -21 29
-68 24 -68 -7 0 -24 17 -33 24 -12 2 7 -1 9 -8 5 -6 -4 -11 -2 -11 4 0 17 29
23 45 10 8 -7 15 -24 15 -39 0 -14 5 -33 10 -41 7 -11 8 -7 6 15 -2 16 0 37 5
45 4 8 18 37 30 63 22 45 24 47 37 30 8 -10 20 -31 28 -48 7 -16 13 -24 14
-16 0 17 -41 91 -51 91 -4 0 -16 -15 -27 -32z"/>
<path d="M2174 1505 c-7 -17 13 -38 28 -29 13 8 9 -10 -8 -34 -9 -13 -14 -26
-11 -29 11 -10 38 47 35 74 -3 32 -34 44 -44 18z"/>
<path d="M515 1500 c-16 -4 -58 -8 -93 -9 l-62 -1 14 -23 c9 -12 20 -56 26
-97 6 -41 13 -82 15 -91 3 -9 -7 -24 -26 -38 -17 -13 -44 -50 -60 -84 -16 -34
-29 -58 -29 -53 0 5 -6 3 -13 -3 -8 -6 -38 -15 -67 -21 -30 -6 -62 -18 -72
-27 -32 -29 -17 -83 23 -83 23 0 34 19 20 33 -8 8 -11 6 -11 -7 0 -22 -24 -16
-28 8 -5 26 16 45 57 52 20 3 48 15 64 25 34 25 36 9 4 -52 l-22 -45 90 -12
c117 -16 158 -15 202 3 43 18 43 18 43 2 0 -7 27 -32 61 -56 33 -23 68 -56 78
-72 l19 -30 5 24 c4 13 30 50 58 82 29 33 58 74 66 93 14 33 13 34 -30 82 -50
56 -72 118 -58 168 8 28 7 31 -17 37 -61 15 -110 74 -127 153 -10 48 -53 62
-130 42z m-5 -36 c-25 -7 -54 -14 -65 -14 -18 0 -20 -6 -18 -62 l1 -63 -8 58
c-4 32 -11 61 -15 65 -8 8 77 30 120 30 26 1 24 -1 -15 -14z m89 -20 c26 -15
71 -71 71 -88 0 -5 -7 -6 -15 -2 -27 10 -16 0 36 -33 28 -19 55 -44 60 -58 16
-44 10 -184 -10 -229 -10 -23 -24 -44 -29 -48 -31 -19 -32 137 -3 215 l21 53
-31 -37 c-25 -30 -31 -48 -33 -87 -1 -32 -9 -59 -22 -76 -23 -32 -44 -42 -44
-22 0 7 -11 14 -25 14 -15 1 -22 -2 -18 -9 3 -5 -2 -16 -12 -23 -27 -20 -55
-1 -55 37 0 24 -4 30 -16 25 -9 -3 -22 -6 -29 -6 -18 0 -28 -30 -14 -46 15
-19 33 -18 25 1 -3 9 0 15 10 15 10 0 14 -8 11 -25 -1 -13 -6 -27 -9 -30 -11
-11 -189 7 -184 19 3 6 17 40 31 76 15 36 34 72 42 80 13 13 13 10 -1 -17 -9
-18 -16 -40 -16 -50 0 -10 -11 -34 -24 -53 l-23 -35 46 -1 c25 -1 66 -4 91 -8
25 -3 38 -4 30 0 -46 17 -60 29 -55 43 4 12 2 12 -9 -1 -16 -22 -26 -23 -26
-3 0 8 -6 15 -12 16 -8 0 -9 2 -2 5 6 3 9 21 7 43 -4 45 17 72 42 51 15 -13
12 -30 -6 -30 -6 0 -7 5 -4 10 3 6 1 10 -4 10 -6 0 -11 -9 -11 -19 0 -28 38
-38 55 -14 19 24 19 43 0 43 -19 0 -31 46 -15 65 6 7 18 11 26 8 16 -6 19 -33
3 -33 -5 0 -7 5 -4 10 3 6 1 10 -5 10 -6 0 -10 -10 -8 -22 2 -19 9 -23 36 -22
36 2 38 -2 17 -30 -21 -28 -19 -36 9 -36 53 0 144 57 181 113 13 21 14 27 4
27 -29 0 -111 -30 -140 -51 -29 -20 -31 -20 -50 -4 -23 22 -25 53 -2 62 14 5
13 8 -5 14 -29 11 -28 25 3 33 26 7 61 1 108 -16 37 -14 17 -28 -40 -28 -34 0
-41 -3 -37 -15 4 -8 1 -15 -6 -15 -6 0 -8 5 -5 10 3 6 1 10 -4 10 -6 0 -11 -9
-11 -20 0 -27 22 -25 87 5 29 14 79 29 111 33 l57 8 -53 7 c-75 11 -151 43
-190 80 -30 29 -31 32 -13 38 19 8 91 -5 120 -21 10 -5 23 -5 31 0 11 7 6 15
-20 40 -42 39 -53 30 -14 -11 23 -26 25 -29 7 -20 -23 12 -63 58 -63 72 0 14
19 11 49 -7z m-59 -12 c0 -4 -14 -9 -32 -10 -17 -1 -37 -10 -44 -20 -12 -16
-13 -15 -14 5 0 16 9 23 38 30 37 10 52 8 52 -5z m-70 -81 c0 -5 3 -16 6 -24
3 -9 -3 -16 -15 -20 -22 -5 -27 7 -15 37 7 17 24 22 24 7z m189 -138 c-31 -41
-74 -73 -117 -87 -52 -18 -58 -16 -41 12 12 19 70 59 78 53 2 -1 7 2 10 7 5 8
39 21 80 31 2 1 -3 -7 -10 -16z m159 -145 c4 -40 2 -50 -9 -46 -24 8 -39 50
-39 108 l0 55 22 -33 c11 -19 23 -56 26 -84z m-128 -96 c13 -11 11 -12 -14 -7
-26 5 -28 4 -17 -9 8 -9 18 -16 24 -16 6 0 21 -9 33 -21 l22 -21 42 46 c56 60
65 51 11 -10 -22 -26 -41 -51 -41 -56 0 -6 -15 3 -34 18 -19 16 -46 37 -60 47
-15 10 -24 22 -21 27 3 5 -2 13 -11 18 -15 8 -14 11 7 26 23 16 24 15 34 -6 5
-13 16 -29 25 -36z m100 22 c0 -20 -39 -53 -62 -54 -25 0 -22 9 14 47 31 32
48 35 48 7z"/>
<path d="M520 1361 c0 -13 97 -59 143 -67 20 -3 37 -4 37 -1 0 6 -78 57 -87
57 -5 0 6 -9 22 -20 17 -11 26 -20 22 -20 -4 0 -19 7 -32 16 -14 9 -33 13 -42
10 -17 -6 -17 -5 0 8 16 13 16 14 -5 20 -34 9 -58 7 -58 -3z"/>
<path d="M500 1270 c8 -5 33 -9 55 -9 31 0 36 2 20 9 -29 13 -94 13 -75 0z"/>
<path d="M721 1193 c-18 -39 -27 -148 -12 -157 6 -4 15 3 21 19 13 35 13 45
-2 41 -7 -1 -10 -1 -5 1 4 3 8 26 9 51 l1 47 7 -45 7 -45 1 45 c2 60 -10 79
-27 43z"/>
<path d="M645 1160 c-4 -6 -25 -22 -46 -36 -39 -24 -49 -52 -21 -62 7 -2 10 2
6 12 -3 9 -1 16 5 16 6 0 11 -6 12 -12 0 -7 7 1 15 19 7 17 18 35 25 38 6 4 3
-7 -6 -25 -9 -17 -15 -39 -13 -48 6 -27 30 25 33 70 2 40 0 45 -10 28z"/>
<path d="M510 1069 c-9 -15 -8 -24 1 -35 15 -18 33 -18 26 0 -3 8 -1 16 4 18
12 4 1 38 -12 38 -4 0 -13 -9 -19 -21z"/>
<path d="M780 1120 c0 -34 11 -70 21 -70 9 0 1 56 -12 80 -6 11 -8 9 -9 -10z"/>
<path d="M2394 1493 c-7 -4 -17 -26 -23 -49 -16 -61 -51 -106 -101 -132 -25
-13 -43 -28 -42 -35 9 -32 2 -98 -14 -128 -9 -19 -32 -48 -51 -65 l-34 -32 15
-37 c9 -20 34 -58 57 -83 23 -26 48 -62 57 -79 l15 -33 17 28 c9 15 43 47 76
71 32 25 61 48 64 52 3 5 28 2 55 -7 45 -13 60 -13 152 2 57 9 112 14 124 11
19 -5 20 -4 5 11 -8 10 -29 55 -47 102 -24 62 -44 97 -75 129 -24 24 -41 47
-38 52 2 5 9 45 14 90 5 45 16 91 23 103 14 20 13 21 -42 22 -31 1 -87 4 -126
8 -38 4 -75 3 -81 -1z m158 -26 c37 -6 64 -15 62 -19 -3 -4 -9 -36 -14 -71
l-9 -62 3 66 2 67 -46 7 c-25 4 -62 7 -82 8 -21 0 -35 3 -32 8 6 10 35 9 116
-4z m-92 -30 c0 -19 -28 -55 -53 -68 -18 -10 -17 -6 7 20 17 17 24 31 17 31
-17 0 -74 -58 -67 -69 3 -5 -1 -11 -9 -15 -20 -7 -19 0 5 40 19 29 73 73 93
74 4 0 7 -6 7 -13z m66 2 l44 -11 0 -52 c0 -29 5 -57 12 -64 19 -19 -3 -31
-35 -18 l-27 12 20 22 c11 11 20 28 20 36 0 18 -38 41 -62 37 -10 -1 -18 2
-18 8 0 5 -3 16 -6 25 -7 19 -6 19 52 5z m14 -68 c0 -15 -62 -63 -106 -82 -22
-10 -66 -21 -97 -25 -31 -4 -57 -10 -57 -14 0 -4 9 -28 20 -53 39 -89 35 -250
-5 -217 -8 7 -20 31 -27 54 -14 52 -28 68 -28 34 0 -14 -8 -36 -19 -49 l-18
-23 -7 22 c-13 39 23 150 43 137 5 -2 12 20 16 50 7 57 30 86 97 121 17 9 26
20 22 26 -5 7 -2 9 7 6 8 -3 30 1 49 8 41 15 110 18 110 5z m15 -101 c3 -6 -1
-13 -9 -16 -14 -5 -14 -8 0 -21 13 -14 13 -18 0 -38 -13 -19 -13 -25 -2 -34
26 -22 70 19 46 43 -7 7 -10 4 -10 -9 0 -14 -3 -16 -11 -8 -6 6 -8 16 -5 22
11 17 34 13 46 -9 9 -16 6 -24 -13 -44 -19 -18 -21 -27 -13 -45 13 -29 50 -25
54 7 2 12 -2 22 -8 22 -6 0 -8 -4 -5 -10 3 -5 1 -10 -4 -10 -19 0 -12 29 10
40 26 15 44 1 60 -48 6 -20 20 -54 31 -75 11 -22 18 -40 16 -42 -2 -2 -48 -5
-103 -8 -87 -5 -93 -5 -45 4 30 6 74 10 98 10 l42 -1 -25 38 c-14 20 -25 46
-25 58 0 12 -8 30 -17 41 -10 10 -15 14 -11 8 11 -17 6 -75 -5 -68 -6 4 -7 1
-2 -7 6 -9 2 -10 -15 -5 -16 5 -21 4 -18 -6 3 -8 12 -13 22 -11 9 2 16 -4 16
-13 0 -9 -5 -13 -11 -10 -5 4 -19 -1 -29 -10 -21 -19 -65 -17 -65 4 0 8 6 16
13 19 7 2 10 -2 6 -12 -8 -20 9 -21 26 -2 17 21 -1 48 -34 52 -23 2 -26 -1
-26 -26 0 -38 -35 -60 -57 -37 -16 16 -10 37 10 37 8 0 8 -3 -2 -9 -10 -6 -10
-10 -1 -16 17 -11 32 9 28 36 -4 31 -30 35 -43 7 -6 -15 -18 -23 -33 -22 -17
0 -22 -5 -22 -24 0 -22 -2 -23 -17 -11 -36 30 -71 147 -41 137 7 -3 22 -23 34
-46 16 -30 24 -37 28 -26 3 8 11 12 17 8 8 -4 7 -9 -2 -15 -11 -7 -10 -9 4 -9
33 0 20 44 -18 64 -20 11 -57 42 -83 70 l-47 51 33 3 c34 3 157 -33 167 -49
10 -15 45 -10 52 6 8 22 -6 33 -17 15 -8 -13 -10 -12 -10 3 0 12 -7 17 -22 16
-43 -4 -88 1 -88 9 0 24 142 44 155 22z m-179 -268 c20 -13 11 -43 -18 -65
-16 -12 -41 -32 -54 -44 l-25 -23 -32 37 c-45 51 -56 67 -57 77 0 15 69 -56
76 -77 6 -18 6 -18 27 1 12 11 37 27 55 36 38 20 42 31 7 22 -27 -7 -35 8 -9
18 8 3 12 10 9 16 -7 12 5 13 21 2z m-103 -30 c18 -16 23 -32 10 -32 -5 1 -21
11 -36 24 -23 18 -25 23 -10 23 10 0 26 -7 36 -15z"/>
<path d="M2435 1350 c-11 -5 -14 -9 -7 -9 6 -1 12 -8 12 -17 0 -15 2 -15 22
-2 45 30 25 50 -27 28z"/>
<path d="M2384 1328 c-5 -7 -2 -9 7 -4 8 4 4 -2 -9 -13 -13 -11 -29 -18 -36
-15 -8 3 -17 1 -21 -5 -8 -14 33 -14 74 0 33 12 41 33 15 43 -21 8 -22 8 -30
-6z"/>
<path d="M2282 1129 c-12 -48 -1 -109 19 -109 10 0 10 93 0 130 -6 23 -8 20
-19 -21z"/>
<path d="M2220 1104 c-13 -32 -13 -86 -1 -64 11 19 24 90 16 90 -3 0 -10 -12
-15 -26z"/>
<path d="M2445 1260 c-15 -6 -8 -9 27 -9 26 -1 50 4 53 9 8 12 -52 12 -80 0z"/>
<path d="M2330 1223 c0 -16 74 -80 119 -103 41 -21 101 -27 101 -11 0 20 -54
73 -94 92 -48 23 -126 37 -126 22z m68 -13 c1 -2 5 -3 10 -4 42 -9 133 -78
120 -91 -15 -15 -145 52 -166 85 -8 13 -6 16 12 14 11 -1 22 -3 24 -4z"/>
<path d="M2360 1101 c12 -41 33 -78 37 -64 4 11 -33 93 -42 93 -2 0 0 -13 5
-29z"/>
<path d="M292 1463 c-5 -10 -7 -24 -5 -30 5 -15 43 -18 43 -3 0 5 -7 7 -15 4
-9 -4 -15 0 -15 10 0 10 9 16 23 16 30 0 47 -35 47 -98 0 -26 5 -54 11 -62 8
-11 9 -5 5 25 -3 22 -6 56 -6 76 0 60 -65 106 -88 62z"/>
<path d="M1481 1411 c-13 -33 -21 -67 -18 -75 4 -9 1 -16 -6 -16 -7 0 -23 -3
-36 -7 -19 -5 -22 -3 -16 8 6 11 5 11 -5 2 -7 -7 -11 -29 -9 -57 3 -31 0 -46
-8 -46 -14 0 -63 -57 -62 -73 0 -9 2 -9 5 0 3 7 11 11 17 9 7 -1 9 -1 5 1 -5
3 -8 8 -8 13 0 12 31 2 59 -19 l23 -18 -43 1 c-40 1 -44 -1 -47 -25 -4 -33 22
-57 43 -39 15 13 12 30 -6 30 -6 0 -7 -5 -3 -11 4 -7 1 -10 -7 -7 -8 3 -14 13
-14 24 0 28 42 30 79 3 24 -18 28 -19 16 -4 -9 11 -10 16 -2 11 6 -4 19 -21
28 -38 8 -16 18 -28 21 -25 2 3 0 14 -6 26 -7 12 -7 22 -2 25 5 4 12 -7 16
-24 4 -16 11 -30 16 -30 6 0 8 4 5 9 -3 4 2 17 10 27 15 18 15 17 9 -9 -4 -19
-2 -26 5 -22 5 3 10 13 10 22 0 9 3 13 6 10 4 -4 20 5 36 18 32 27 73 33 80
13 7 -19 -2 -38 -18 -38 -9 0 -12 5 -8 13 6 10 4 10 -7 0 -20 -19 5 -42 29
-27 37 24 21 74 -23 74 -13 0 -37 -12 -54 -26 -33 -27 -42 -23 -15 7 15 16 14
17 -5 12 -22 -6 -29 11 -9 23 7 5 8 3 3 -6 -5 -9 -4 -11 3 -6 20 12 13 26 -11
26 -16 0 -28 -10 -40 -32 -12 -26 -16 -29 -16 -13 -1 12 -6 26 -13 33 -18 18
-48 15 -48 -5 0 -15 2 -16 10 -3 8 13 10 12 10 -3 0 -11 -6 -17 -12 -14 -7 2
-13 15 -13 28 0 18 5 24 22 23 12 0 20 3 17 8 -3 4 -12 8 -20 8 -8 0 -14 7
-14 15 0 8 5 15 11 15 5 0 7 -6 3 -12 -6 -10 -4 -10 8 0 14 11 17 10 23 -9 7
-20 10 -18 36 25 39 62 43 58 9 -10 -16 -30 -23 -50 -15 -44 8 7 17 21 20 31
6 17 9 18 23 7 12 -10 14 -10 8 0 -4 6 -2 12 3 12 18 0 12 -17 -11 -34 -13 -9
-18 -14 -11 -11 19 9 43 -6 43 -26 0 -22 13 -24 32 -6 7 6 24 13 38 15 18 2
21 0 12 -6 -11 -7 -10 -11 4 -16 22 -8 23 -6 13 21 -4 13 -21 31 -36 40 -25
16 -28 23 -25 62 2 25 -2 48 -9 55 -9 8 -10 8 -5 -1 3 -6 -1 -13 -11 -16 -17
-4 -17 -5 0 -6 12 -1 17 -9 16 -28 -1 -19 -3 -22 -6 -10 -5 21 -38 57 -51 57
-5 0 -9 12 -10 28 -1 22 -38 122 -45 122 -1 0 -13 -27 -26 -59z m45 -57 c2
-14 -3 -20 -16 -21 -13 -1 -20 5 -20 16 0 36 31 40 36 5z m-6 -77 c0 -18 -6
-40 -14 -49 -11 -16 -14 -14 -30 20 l-16 37 21 -25 c16 -18 20 -20 16 -7 -9
23 2 69 14 61 5 -3 9 -20 9 -37z"/>
<path d="M2656 1448 c-7 -13 -16 -57 -19 -98 -4 -47 -3 -67 3 -55 5 11 9 43 9
70 1 52 22 95 46 95 20 0 29 -20 15 -33 -10 -9 -11 -9 -6 1 4 6 2 12 -3 12
-15 0 -14 -17 1 -26 17 -11 40 26 27 43 -18 21 -57 16 -73 -9z"/>
<path d="M1583 1420 c-3 -11 -9 -17 -14 -15 -7 5 -1 -64 7 -74 1 -1 6 14 9 35
4 22 8 45 11 52 5 17 46 11 52 -7 3 -10 0 -12 -12 -8 -17 7 -23 -8 -7 -17 13
-9 32 19 25 38 -9 24 -64 21 -71 -4z"/>
<path d="M877 1419 c-9 -6 -17 -16 -17 -23 0 -17 -63 -31 -68 -16 -3 7 -9 7
-18 -1 -14 -12 -29 -6 -29 12 0 12 -19 13 -23 1 -1 -5 9 -17 23 -26 23 -15 30
-15 74 -2 44 13 50 13 55 -1 3 -8 6 -16 6 -17 0 -1 -19 0 -42 2 -24 3 -41 2
-38 -1 3 -3 25 -7 49 -8 29 -2 45 -9 52 -21 10 -19 44 -24 54 -8 3 5 -6 27
-20 47 -14 21 -25 43 -25 50 0 18 -13 23 -33 12z"/>
<path d="M2110 1406 c0 -7 -12 -30 -26 -51 -23 -34 -24 -40 -10 -53 13 -13 18
-13 31 -2 24 20 57 90 51 106 -7 18 -46 18 -46 0z"/>
<path d="M270 1376 c0 -21 29 -51 77 -79 16 -10 -4 63 -25 86 -23 26 -52 22
-52 -7z m50 -20 c0 5 5 1 11 -9 6 -10 8 -21 5 -24 -9 -9 -33 16 -39 40 -6 21
-6 21 8 3 8 -11 15 -16 15 -10z"/>
<path d="M2705 1386 c-20 -15 -49 -96 -34 -96 12 0 28 42 21 55 -3 6 -2 7 3 3
4 -4 14 0 21 10 12 16 12 16 9 -3 -2 -11 -4 -20 -5 -20 -1 0 -3 -7 -5 -15 -1
-10 6 -16 23 -17 18 -1 21 1 11 8 -17 11 -1 10 26 -1 18 -7 16 -9 -14 -16 -28
-6 -30 -9 -16 -17 24 -13 65 7 65 33 0 17 -9 23 -40 22 -3 0 -16 -3 -30 -7
-24 -7 -24 -7 -7 12 20 23 23 63 4 63 -7 0 -22 -6 -32 -14z"/>
<path d="M2870 1363 c0 -16 12 -45 26 -64 14 -19 29 -41 34 -49 13 -23 22 -6
11 23 -8 21 -7 26 10 30 10 3 19 10 19 16 0 6 -7 8 -15 5 -19 -8 -65 22 -65
41 0 7 -4 17 -10 20 -6 4 -10 -6 -10 -22z"/>
<path d="M2161 1357 c-6 -9 4 -12 37 -14 42 -1 44 0 22 9 -38 16 -48 17 -59 5z"/>
<path d="M1223 1349 c10 -6 22 -20 27 -32 9 -19 9 -19 7 8 -2 24 -7 31 -27 33
-22 2 -23 1 -7 -9z"/>
<path d="M1773 1353 c-7 -3 -13 -17 -13 -31 1 -25 1 -26 12 -7 6 11 16 23 21
26 12 8 -4 18 -20 12z"/>
<path d="M163 1333 c-11 -32 -36 -53 -62 -53 -26 -1 -26 -1 -6 -18 14 -12 19
-27 17 -47 -3 -27 0 -25 32 25 20 30 36 67 36 82 0 32 -8 36 -17 11z"/>
<path d="M1023 1340 c40 -12 57 -29 57 -56 0 -17 -6 -24 -19 -24 -24 0 -36 16
-19 23 9 4 10 6 1 6 -21 2 -27 -22 -9 -34 38 -28 80 13 55 54 -14 22 -51 41
-77 40 -9 0 -4 -5 11 -9z"/>
<path d="M211 1326 c-10 -12 -8 -19 8 -35 12 -12 30 -21 42 -21 18 0 19 2 5
15 -8 8 -21 15 -28 16 -7 0 -4 4 7 9 28 12 37 12 29 -2 -5 -7 -3 -8 5 -4 7 5
21 0 32 -10 10 -9 21 -15 24 -12 8 8 -72 58 -94 58 -10 0 -24 -6 -30 -14z"/>
<path d="M1199 1322 c19 -36 8 -70 -31 -94 -36 -23 -39 -32 -29 -89 2 -14 60
-30 84 -23 15 3 27 7 28 8 0 0 3 30 5 66 3 45 1 60 -6 50 -5 -8 -10 -31 -10
-50 0 -36 -14 -60 -36 -60 -6 0 -11 7 -10 16 0 9 -5 19 -11 21 -7 3 -13 0 -13
-7 0 -6 5 -8 12 -4 7 4 8 3 4 -4 -10 -16 -36 -3 -36 18 0 10 19 33 41 51 23
18 37 35 30 37 -9 3 -9 7 0 18 15 18 3 64 -17 64 -11 0 -12 -4 -5 -18z"/>
<path d="M1665 1330 c-14 -22 5 -47 35 -47 17 0 30 4 30 8 0 12 -38 21 -51 13
-8 -4 -9 -3 -5 4 4 7 14 12 22 12 8 0 12 5 9 10 -8 13 -32 13 -40 0z"/>
<path d="M1800 1326 c-14 -18 -10 -58 7 -63 7 -3 9 3 6 15 -2 11 0 29 6 41 13
24 0 28 -19 7z"/>
<path d="M1944 1315 c-28 -28 -28 -52 -1 -69 12 -8 22 -8 35 0 19 13 23 35 5
41 -7 3 -9 -3 -6 -16 6 -24 -18 -29 -36 -7 -15 18 -4 44 28 61 14 8 20 14 13
15 -7 0 -24 -11 -38 -25z"/>
<path d="M1172 1323 c3 -11 -22 -56 -36 -65 -6 -5 -3 -8 10 -8 11 0 25 5 32
12 15 15 16 54 2 63 -6 4 -9 3 -8 -2z"/>
<path d="M1837 1324 c-15 -15 -7 -63 12 -74 32 -17 46 -12 27 9 -9 10 -20 31
-24 46 -4 14 -11 23 -15 19z"/>
<path d="M1297 1303 c-13 -12 -7 -22 8 -17 8 4 22 1 30 -6 18 -15 20 1 3 18
-13 13 -31 16 -41 5z"/>
<path d="M922 1250 c11 -33 34 -50 67 -50 14 0 21 6 21 20 0 13 -7 20 -20 20
-11 0 -20 -4 -20 -10 0 -22 -22 -8 -31 20 -6 17 -15 30 -19 30 -5 0 -4 -14 2
-30z"/>
<path d="M2090 1268 c0 -8 -7 -23 -15 -34 -12 -16 -16 -17 -24 -5 -11 17 -41
7 -41 -14 0 -25 29 -29 57 -9 29 22 47 60 33 69 -6 4 -10 0 -10 -7z"/>
<path d="M2164 1259 c-9 -26 -6 -56 6 -78 5 -9 7 6 5 35 -4 43 -3 45 4 14 8
-35 8 -35 10 -5 1 43 -14 65 -25 34z"/>
<path d="M324 1255 c11 -8 18 -15 15 -16 -2 0 -11 -2 -19 -4 -8 -2 -25 -6 -38
-9 -12 -3 -28 -8 -35 -12 -8 -5 -8 -2 2 9 7 9 20 17 27 17 8 0 14 5 14 10 0
15 -36 12 -50 -5 -7 -8 -10 -21 -7 -29 3 -8 -2 -16 -14 -19 -29 -8 -26 -55 5
-63 39 -9 65 4 93 49 14 23 35 53 47 67 17 20 18 22 2 10 -15 -12 -20 -12 -23
-2 -3 6 -12 12 -21 12 -15 -1 -14 -3 2 -15z m-29 -70 c-21 -28 -33 -35 -53
-33 -41 5 -33 31 13 46 22 7 44 17 49 22 23 23 16 -3 -9 -35z"/>
<path d="M891 1242 c-1 -47 36 -82 88 -82 22 0 43 5 47 12 5 8 2 9 -11 4 -10
-3 -34 -1 -52 5 -26 8 -39 21 -53 53 l-19 41 0 -33z"/>
<path d="M1286 1254 c-26 -26 -18 -33 18 -16 19 9 33 19 30 24 -8 13 -31 9
-48 -8z"/>
<path d="M1684 1262 c-7 -4 2 -13 22 -23 35 -17 47 -6 22 19 -14 14 -28 15
-44 4z"/>
<path d="M2115 1242 c-10 -42 -48 -72 -94 -73 l-36 -1 32 -10 c62 -20 122 31
110 94 -4 20 -5 19 -12 -10z"/>
<path d="M1780 1250 c0 -5 18 -21 40 -35 29 -18 40 -32 40 -50 0 -14 -4 -25
-10 -25 -5 0 -10 5 -10 11 0 6 -6 9 -12 6 -7 -2 -12 -11 -10 -21 4 -23 -25
-20 -38 3 -5 11 -10 35 -10 55 0 19 -4 38 -10 41 -6 4 -9 -15 -7 -51 2 -53 4
-58 34 -72 29 -14 33 -13 62 7 40 29 43 76 6 93 -14 6 -25 14 -25 18 0 4 -11
12 -25 18 -15 7 -25 8 -25 2z"/>
<path d="M2665 1227 c17 -19 38 -47 48 -62 37 -53 107 -53 107 0 0 18 -5 25
-19 25 -24 0 -36 -16 -20 -26 8 -4 9 -3 5 4 -4 7 -1 12 8 12 23 0 20 -28 -4
-35 -27 -9 -46 4 -88 60 -20 27 -44 51 -52 53 -8 3 -1 -11 15 -31z"/>
<path d="M2705 1230 c35 -36 85 -42 85 -10 0 22 -32 43 -58 38 -13 -3 -9 -8
16 -21 38 -21 42 -30 7 -17 -14 5 -25 7 -25 4 0 -4 -7 -1 -15 6 -8 7 -12 16
-9 21 3 5 -3 9 -12 9 -14 0 -12 -6 11 -30z"/>
<path d="M64 1239 c-3 -6 -2 -15 2 -19 12 -12 38 5 30 19 -9 14 -23 14 -32 0z"/>
<path d="M1297 1209 c-15 -21 -12 -59 4 -59 5 0 9 9 9 19 0 11 12 29 26 40
l27 21 -26 0 c-15 0 -32 -9 -40 -21z"/>
<path d="M1684 1205 c14 -13 26 -31 26 -40 0 -9 5 -13 10 -10 14 9 13 48 -2
63 -7 7 -23 12 -36 12 l-25 0 27 -25z"/>
<path d="M2730 1112 c0 -17 35 -40 74 -48 21 -3 47 -15 57 -25 20 -20 16 -49
-8 -49 -8 0 -11 5 -8 10 3 6 1 10 -4 10 -17 0 -13 -27 5 -34 21 -8 54 20 54
45 0 30 -40 58 -92 65 -27 4 -56 13 -64 21 -8 8 -14 10 -14 5z"/>
<path d="M1038 1089 c-15 -11 -46 -23 -70 -27 l-43 -8 48 -7 c54 -8 82 3 92
34 9 29 4 30 -27 8z"/>
<path d="M1113 1097 c-13 -5 -23 -14 -23 -19 0 -13 12 -10 32 9 10 9 18 11 18
6 0 -6 -7 -16 -15 -23 -18 -15 -20 -43 -3 -38 14 5 30 60 20 69 -4 4 -17 2
-29 -4z"/>
<path d="M1864 1087 c-3 -8 0 -26 6 -42 8 -21 14 -25 22 -17 9 9 7 16 -5 30
-23 25 -21 39 2 18 12 -11 21 -13 25 -7 4 5 -2 15 -13 20 -26 14 -31 14 -37
-2z"/>
<path d="M1950 1087 c0 -24 37 -48 79 -54 59 -8 51 -19 -11 -15 -49 3 -52 2
-34 -13 24 -19 56 -19 80 -2 16 12 17 16 5 35 -8 12 -21 22 -29 22 -8 0 -30 9
-48 20 -38 24 -42 24 -42 7z"/>
<path d="M1757 1011 c-3 -24 -15 -53 -28 -67 -28 -30 -82 -46 -115 -34 -13 5
-24 7 -24 4 0 -3 -8 2 -17 12 -10 10 -18 21 -18 25 0 4 -4 11 -9 16 -5 4 -6 3
-3 -3 4 -6 -2 -19 -12 -28 -18 -16 -19 -15 -26 11 l-7 28 -12 -23 c-8 -16 -15
-19 -24 -12 -6 6 -10 7 -7 4 7 -10 -16 -35 -26 -28 -5 3 -9 1 -9 -5 0 -6 -8
-8 -17 -5 -15 5 -15 4 -4 -4 10 -7 21 -7 34 0 15 8 18 7 12 -2 -5 -8 -3 -11 6
-8 8 3 13 12 13 21 -1 9 2 14 7 12 4 -3 12 3 18 12 6 10 11 13 11 7 0 -21 -43
-66 -76 -80 -63 -26 -133 -10 -163 38 -11 18 -11 18 15 2 14 -10 43 -19 63
-20 20 -1 47 -5 60 -9 14 -4 27 -2 35 5 8 10 7 12 -7 7 -15 -6 -40 2 -114 36
-30 14 -53 50 -56 87 -3 37 -14 38 -28 3 -12 -33 -4 -99 16 -130 20 -30 96
-57 138 -49 19 3 55 20 80 37 l46 30 33 -24 c77 -58 171 -56 222 4 21 24 26
41 26 83 0 29 -6 60 -13 71 -13 16 -14 14 -20 -24z m-165 -105 c7 5 8 2 3 -6
-6 -10 -4 -12 9 -7 9 4 15 3 12 -2 -4 -5 16 -11 43 -13 29 -2 49 1 48 7 -1 6
6 10 15 10 10 0 24 9 33 20 16 20 16 20 6 0 -36 -77 -152 -86 -215 -17 -10 12
-15 26 -11 32 5 8 13 5 27 -9 10 -12 24 -18 30 -15z"/>
<path d="M1445 1031 c-3 -2 -5 -12 -5 -22 0 -13 11 -19 43 -24 52 -8 100 8 95
33 -3 14 -14 17 -66 17 -35 1 -65 -1 -67 -4z"/>
<path d="M940 1022 c0 -23 83 -32 105 -11 5 5 -4 9 -26 9 -18 0 -44 3 -56 6
-13 4 -23 2 -23 -4z"/>
<path d="M1325 1019 c-18 -27 60 -69 93 -50 13 8 9 10 -21 11 -35 0 -37 2 -31
25 5 21 3 25 -14 25 -12 0 -24 -5 -27 -11z"/>
<path d="M1652 1005 c5 -23 2 -25 -31 -25 -29 -1 -33 -3 -19 -11 22 -12 62 -2
83 21 20 22 12 40 -17 40 -16 0 -19 -5 -16 -25z"/>
<path d="M905 992 c10 -18 11 -31 3 -48 -14 -31 -1 -45 18 -20 15 21 18 65 6
81 -4 6 -14 11 -23 11 -14 1 -15 -2 -4 -24z"/>
<path d="M1186 1004 c-9 -24 -7 -73 5 -97 l10 -22 -18 21 c-10 12 -23 30 -30
40 -11 17 -12 17 -12 -8 -1 -27 29 -68 48 -68 5 0 12 8 15 17 6 15 8 15 16 3
6 -8 10 -10 10 -4 0 5 -6 18 -14 29 -8 11 -12 35 -9 62 3 42 -9 58 -21 27z"/>
<path d="M1285 1000 c8 -29 59 -80 81 -80 18 0 78 30 71 36 -2 3 -16 0 -31 -5
-35 -14 -67 -1 -100 41 -25 30 -27 31 -21 8z"/>
<path d="M1711 989 c-31 -42 -63 -52 -109 -34 l-37 15 29 -26 c47 -41 112 -19
135 47 13 37 10 36 -18 -2z"/>
<path d="M1811 983 c1 -33 -4 -59 -18 -85 -2 -4 3 -5 12 -2 30 12 45 67 29
108 -11 29 -26 16 -23 -21z"/>
<path d="M2115 1010 c-4 -6 -10 -8 -15 -5 -9 6 -20 -18 -20 -45 0 -20 39 -72
40 -53 0 6 -5 24 -10 39 -8 19 -8 30 0 38 7 7 10 3 10 -12 0 -29 42 -72 71
-72 19 0 18 3 -15 40 -20 22 -36 45 -36 51 0 5 -5 7 -12 3 -8 -5 -9 -2 -5 9 7
19 2 23 -8 7z"/>
<path d="M855 957 c-37 -52 -39 -57 -25 -57 19 0 70 57 70 79 0 31 -11 25 -45
-22z"/>
<path d="M1062 966 c-11 -15 -26 -24 -34 -21 -11 5 -14 -1 -10 -25 3 -19 0
-30 -8 -30 -7 0 -21 -12 -32 -26 -15 -19 -26 -24 -42 -19 -38 12 -66 13 -66 4
0 -5 11 -11 25 -15 36 -9 31 -24 -9 -24 -44 0 -66 9 -66 25 0 7 -6 16 -12 19
-9 3 -7 9 6 20 19 16 19 16 -2 16 -33 0 -42 -47 -13 -69 18 -13 19 -19 9 -30
-11 -11 -9 -12 11 -6 20 6 23 5 17 -11 -6 -17 -6 -17 12 -1 22 20 42 22 42 5
0 -6 10 -3 23 8 41 36 86 64 90 56 2 -4 1 -33 -2 -64 -6 -47 -4 -58 7 -58 10
0 13 -9 10 -30 -4 -26 -2 -29 14 -24 13 4 16 1 12 -10 -3 -9 -1 -16 5 -16 6 0
11 7 11 15 0 12 4 13 25 3 22 -10 29 -9 46 8 17 18 18 22 4 39 -14 19 -14 19
-15 -7 0 -16 -5 -28 -11 -28 -5 0 -7 5 -3 11 5 8 -1 10 -19 5 -21 -5 -29 -1
-46 28 -27 44 -27 62 1 36 12 -11 27 -20 32 -19 6 0 6 3 -1 5 -7 3 -10 11 -7
19 3 7 -3 16 -15 20 -22 7 -26 28 -15 84 6 26 11 31 35 31 16 0 29 5 29 10 0
6 -7 10 -15 10 -8 0 -15 5 -15 10 0 6 4 10 9 10 12 0 22 43 12 53 -5 5 -18 -3
-29 -17z"/>
<path d="M1920 970 c0 -6 5 -21 11 -32 9 -17 8 -23 -7 -32 -17 -9 -16 -11 11
-16 22 -4 30 -11 30 -27 0 -12 3 -25 8 -29 14 -14 8 -64 -8 -64 -9 0 -19 -8
-22 -17 -4 -10 -11 -21 -17 -25 -7 -5 -5 -8 5 -8 9 0 24 9 34 20 28 31 29 16
3 -29 -19 -34 -27 -41 -45 -36 -13 3 -23 1 -23 -5 0 -6 -5 -8 -11 -4 -6 3 -8
15 -5 27 4 18 3 19 -10 5 -8 -8 -12 -22 -8 -31 8 -21 43 -32 57 -18 15 15 27
14 27 -4 0 -8 4 -15 10 -15 5 0 6 8 3 17 -5 12 -2 15 10 10 14 -5 17 0 17 29
0 19 4 33 8 30 5 -3 7 17 4 44 -5 52 4 92 16 74 12 -18 92 -65 92 -54 0 6 13
4 30 -5 20 -10 30 -12 30 -4 0 6 7 8 16 5 12 -5 15 -2 10 10 -4 10 2 22 15 33
18 15 20 21 10 39 -7 13 -21 22 -34 21 -15 -1 -17 -3 -5 -6 9 -2 19 -11 22
-20 4 -11 2 -14 -9 -9 -10 3 -15 -1 -15 -13 0 -11 -9 -21 -22 -25 -36 -9 -78
-7 -78 4 0 6 8 10 19 10 10 0 23 6 29 13 9 10 6 13 -13 12 -13 0 -27 -3 -31
-7 -14 -15 -34 -8 -64 21 -32 30 -37 50 -19 68 7 7 7 13 1 17 -6 3 -14 1 -17
-5 -5 -7 -12 -2 -19 13 -12 24 -46 38 -46 18z"/>
<path d="M2036 958 c-18 -25 -21 -48 -7 -48 10 0 36 58 28 66 -3 3 -12 -5 -21
-18z"/>
<path d="M180 949 c-10 -18 -9 -20 12 -17 12 2 24 11 26 21 5 24 -25 22 -38
-4z"/>
<path d="M960 961 c0 -5 9 -19 20 -32 19 -23 19 -23 20 -3 0 20 -17 44 -32 44
-4 0 -8 -4 -8 -9z"/>
<path d="M2804 954 c3 -9 6 -18 6 -20 0 -2 9 -4 21 -4 15 0 19 4 15 16 -3 9
-6 18 -6 20 0 2 -9 4 -21 4 -15 0 -19 -4 -15 -16z"/>
<path d="M1860 946 c0 -7 -10 -25 -21 -40 -28 -35 -16 -46 16 -16 25 23 35 70
15 70 -5 0 -10 -6 -10 -14z"/>
<path d="M2694 906 c60 -61 90 -70 122 -35 14 15 16 24 7 37 -12 20 -35 22
-41 4 -2 -7 2 -10 12 -6 19 7 21 -7 4 -24 -20 -20 -39 -14 -77 27 -20 21 -47
42 -59 46 -18 5 -10 -7 32 -49z"/>
<path d="M305 904 c-30 -30 -51 -44 -61 -40 -9 3 -18 6 -20 6 -2 0 -4 10 -4
23 0 16 3 18 9 8 6 -9 11 -10 15 -2 8 13 -18 26 -34 16 -15 -9 -12 -41 6 -59
27 -27 56 -18 103 33 25 26 53 51 61 54 10 3 7 6 -8 6 -15 1 -39 -15 -67 -45z"/>
<path d="M469 941 c-67 -7 -101 -32 -97 -70 2 -20 9 -26 28 -26 16 0 26 6 28
18 2 11 -3 17 -15 16 -10 0 -13 -3 -5 -6 17 -7 15 -23 -2 -23 -24 0 -29 19
-13 44 13 19 27 24 77 29 34 3 67 10 73 16 8 8 7 11 -3 10 -8 -1 -40 -5 -71
-8z"/>
<path d="M600 926 c14 -16 41 -36 61 -47 40 -20 53 -41 44 -70 -8 -23 -35 -25
-35 -3 0 9 5 12 12 8 7 -4 8 -3 4 5 -6 9 -11 9 -22 0 -17 -14 -17 -14 2 -33
22 -23 54 -4 54 32 0 29 -24 56 -85 98 -53 36 -61 38 -35 10z"/>
<path d="M2385 913 c-27 -19 -58 -42 -67 -50 -35 -31 -12 -104 27 -89 21 8 19
46 -2 46 -15 0 -16 -2 -3 -10 11 -7 12 -12 4 -20 -16 -16 -37 14 -29 40 4 12
29 35 56 52 27 16 54 38 60 49 5 10 8 19 7 18 -2 -1 -25 -17 -53 -36z"/>
<path d="M2466 941 c7 -7 40 -16 73 -20 63 -8 111 -37 97 -60 -11 -17 -39 -13
-32 5 3 8 2 12 -4 9 -13 -8 -13 -32 0 -40 22 -13 50 6 50 34 0 40 -26 58 -98
65 -35 4 -71 10 -80 13 -13 5 -14 3 -6 -6z"/>
<path d="M102 908 c-19 -19 -14 -26 12 -21 29 6 44 33 18 33 -10 0 -23 -5 -30
-12z"/>
<path d="M2466 913 c-3 -3 -6 -18 -6 -32 1 -23 2 -24 11 -8 5 9 7 23 4 30 -4
6 0 3 9 -7 8 -10 13 -23 10 -28 -3 -5 -2 -7 3 -6 4 1 21 -6 36 -16 31 -21 51
-12 45 20 -5 26 -95 64 -112 47z m84 -38 c23 -25 15 -36 -8 -12 -7 6 -18 12
-24 12 -6 0 -13 6 -15 13 -8 21 22 13 47 -13z"/>
<path d="M2880 910 c0 -6 12 -15 26 -20 36 -14 39 -13 19 10 -19 21 -45 27
-45 10z"/>
<path d="M462 894 c-29 -20 -29 -54 0 -54 12 0 30 8 41 18 19 16 20 16 8 -5
-25 -48 -2 -96 34 -69 15 11 16 18 7 42 -9 25 -11 26 -11 7 -1 -12 -5 -25 -11
-28 -17 -11 -4 57 14 70 9 7 16 18 16 26 -1 9 -6 7 -16 -6 -17 -22 -33 -26
-52 -11 -11 7 -11 11 0 17 7 5 8 9 3 9 -6 0 -21 -7 -33 -16z"/>
<path d="M570 901 c0 -6 8 -16 18 -23 9 -7 18 -21 18 -31 2 -17 1 -17 -17 -1
-18 17 -19 16 -8 -14 10 -30 33 -47 50 -36 18 11 8 50 -21 82 -31 33 -40 39
-40 23z"/>
<path d="M2412 877 c-35 -36 -42 -74 -16 -84 18 -7 44 20 44 45 0 11 -6 8 -19
-7 l-20 -23 3 29 c2 17 11 32 24 38 12 5 22 15 22 22 0 18 -2 17 -38 -20z"/>
<path d="M1076 871 c-3 -5 1 -12 10 -15 21 -8 65 4 58 15 -7 12 -61 12 -68 0z"/>
<path d="M1489 863 c-33 -39 -131 -55 -198 -32 -28 10 -35 9 -56 -11 -13 -13
-34 -51 -45 -86 -12 -35 -32 -79 -45 -99 l-24 -35 32 0 c18 0 69 -14 114 -32
65 -26 83 -37 83 -53 1 -34 35 -97 94 -170 31 -38 56 -76 56 -82 0 -7 5 -13
10 -13 6 0 10 6 10 13 0 7 22 40 49 73 63 78 91 130 91 171 0 26 4 33 19 33
11 0 48 13 83 30 34 16 77 30 95 30 l32 0 -24 43 c-12 23 -30 66 -40 95 -9 29
-27 65 -40 80 -21 25 -25 25 -62 14 -61 -18 -120 -15 -164 10 -22 12 -39 25
-39 30 0 13 -17 9 -31 -9z m79 -58 c28 -13 52 -26 52 -28 0 -2 -13 -4 -30 -4
-16 0 -27 4 -25 8 3 4 -2 10 -10 13 -12 4 -13 2 -6 -12 16 -30 69 -74 80 -68
18 12 12 23 -19 36 -17 7 -29 15 -26 17 2 3 14 -1 26 -7 15 -8 20 -8 16 -1
-14 22 14 10 49 -20 34 -30 71 -86 62 -95 -2 -2 -26 4 -53 13 -35 12 -67 34
-112 80 -52 53 -60 58 -46 31 9 -18 22 -69 29 -113 10 -71 13 -80 33 -83 12
-2 22 2 22 8 0 6 -4 9 -9 5 -5 -3 -12 -1 -15 4 -4 5 -2 12 4 16 6 4 2 20 -10
43 -28 52 -26 67 5 46 30 -19 59 -59 70 -93 6 -21 5 -23 -13 -19 -15 4 -22 0
-26 -14 -4 -16 -11 -19 -31 -16 -31 6 -40 -5 -25 -32 13 -24 50 -27 50 -4 0 8
-4 12 -10 9 -5 -3 -10 -1 -10 4 0 6 9 11 20 11 27 0 26 -36 -1 -50 -16 -9 -25
-8 -42 3 -21 14 -24 13 -35 -11 -8 -19 -9 -29 -1 -39 16 -18 49 -16 49 3 0 8
-4 12 -10 9 -5 -3 -10 -1 -10 4 0 18 28 13 39 -6 8 -13 10 -14 11 -4 0 8 2 12
5 9 9 -9 -12 -51 -40 -83 -15 -16 -33 -42 -41 -57 -18 -35 -24 -35 -52 5 -12
17 -36 50 -52 71 -17 21 -30 46 -30 55 1 11 5 8 15 -9 l15 -25 -3 25 c-1 16 4
25 16 28 9 2 17 -2 17 -8 0 -6 -4 -8 -10 -5 -5 3 -10 -1 -10 -9 0 -20 33 -21
49 -2 9 10 9 20 0 40 -12 26 -29 35 -29 16 0 -5 -13 -10 -29 -10 -32 0 -52 33
-33 52 12 12 32 2 32 -15 0 -7 -4 -6 -10 3 -8 13 -10 12 -10 -2 0 -22 33 -24
49 -4 17 21 4 44 -23 39 -33 -7 -62 33 -42 56 7 9 19 26 25 38 9 18 9 22 -2
17 -17 -6 -48 -59 -45 -75 2 -6 -3 -14 -9 -16 -42 -15 22 92 70 118 25 14 22
-11 -8 -55 -18 -27 -21 -36 -10 -36 8 0 15 -5 15 -11 0 -5 -4 -7 -10 -4 -5 3
-10 2 -10 -4 0 -5 5 -13 10 -16 22 -14 37 17 43 85 3 38 15 91 26 117 l21 48
-22 -30 c-41 -56 -102 -108 -156 -132 -29 -14 -56 -23 -59 -20 -11 12 11 50
50 89 23 22 33 36 22 30 -20 -10 -56 -16 -85 -13 -11 1 -7 9 12 26 27 23 112
44 125 31 11 -11 -4 -17 -51 -20 -26 -1 -52 -8 -59 -16 -10 -10 -6 -11 23 -5
19 4 44 8 56 10 11 2 43 14 70 28 61 32 67 32 132 2z m138 -14 c47 -21 60 -36
40 -44 -27 -11 -136 33 -136 53 0 16 52 11 96 -9z m-494 -104 c-11 -32 -15
-57 -9 -57 16 0 97 -43 97 -51 0 -10 -25 -1 -65 23 -16 10 -38 18 -49 18 -13
0 -16 4 -11 18 4 9 14 35 22 57 23 65 25 70 29 60 3 -6 -4 -37 -14 -68z m616
-9 c15 -47 16 -58 5 -58 -7 0 -36 -11 -63 -25 -28 -14 -50 -22 -50 -18 0 11
75 53 94 53 13 0 13 4 2 33 -7 17 -17 46 -20 62 -12 49 10 16 32 -47z m-46 40
c1 -13 2 -30 3 -38 0 -8 4 -20 8 -26 4 -7 -1 -14 -13 -17 -13 -3 -21 1 -26 16
-4 13 -2 23 5 25 8 3 6 8 -6 17 -15 11 -15 15 -4 29 19 22 31 20 33 -6z m-527
-15 c-8 -31 -13 -39 -20 -31 -9 9 6 58 17 58 6 0 7 -11 3 -27z m77 -100 c-5
-25 -22 -32 -22 -8 0 8 -6 15 -12 15 -10 0 -10 2 0 8 24 16 39 10 34 -15z
m390 -5 c-19 -21 -28 -25 -39 -17 -7 6 -13 20 -13 30 0 14 7 18 38 16 l38 -1
-24 -28z"/>
<path d="M1408 774 c-16 -8 -28 -17 -28 -20 0 -2 9 0 19 6 11 5 23 10 28 10 4
-1 -5 -8 -20 -16 -16 -9 -31 -13 -35 -10 -8 9 -62 -45 -62 -61 0 -26 120 50
141 89 12 23 -4 24 -43 2z"/>
<path d="M1490 734 c-26 -68 -24 -172 5 -210 13 -18 15 -18 32 -1 14 14 17 32
16 90 -1 63 -23 147 -38 147 -3 0 -10 -12 -15 -26z m42 -114 c1 -49 -9 -90
-22 -90 -16 0 -34 120 -21 145 5 10 6 13 10 50 4 34 32 -55 33 -105z"/>
<path d="M1650 728 c0 -10 -5 -18 -11 -18 -19 0 0 -18 31 -28 36 -13 37 -6 5
33 -19 23 -24 26 -25 13z"/>
<path d="M1580 673 c0 -7 13 -27 30 -45 16 -18 30 -27 30 -21 0 7 -13 27 -30
45 -16 18 -30 27 -30 21z"/>
<path d="M1570 416 c-14 -8 -28 -12 -33 -9 -4 2 -6 -1 -5 -8 4 -19 -33 -16
-65 5 -40 27 -46 11 -9 -25 17 -17 34 -39 37 -50 9 -27 21 -24 35 11 7 17 20
36 29 43 17 12 46 47 40 47 -2 -1 -15 -7 -29 -14z"/>
<path d="M1660 775 c14 -8 36 -14 50 -14 l25 0 -25 14 c-14 8 -36 14 -50 14
l-25 0 25 -14z"/>
<path d="M1875 871 c-3 -6 1 -12 9 -12 9 -1 23 -2 31 -3 8 0 15 4 15 9 1 14
-47 19 -55 6z"/>
<path d="M1140 830 c-21 -21 -27 -50 -11 -50 5 0 11 7 15 15 3 8 20 24 38 35
l33 20 -27 0 c-16 0 -37 -9 -48 -20z"/>
<path d="M1830 844 c0 -6 59 -64 66 -64 12 0 1 30 -19 48 -22 21 -47 29 -47
16z"/>
<path d="M2497 843 c-4 -3 -4 -18 0 -32 l6 -26 -20 24 c-12 15 -22 20 -26 14
-4 -6 1 -21 11 -34 25 -30 52 -20 52 20 0 30 -11 46 -23 34z"/>
<path d="M1171 804 c-22 -28 -28 -88 -11 -99 6 -3 10 2 10 13 0 10 11 40 25
66 28 52 12 66 -24 20z"/>
<path d="M1805 821 c-2 -5 1 -14 9 -20 7 -6 19 -31 26 -56 14 -49 30 -51 30
-4 0 46 -48 106 -65 80z"/>
<path d="M949 791 c-19 -15 -43 -33 -54 -39 -11 -6 -14 -12 -7 -12 6 0 12 -5
12 -11 0 -8 -14 -10 -42 -5 -40 5 -41 5 -24 -9 11 -8 25 -15 32 -15 7 0 11
-13 10 -32 -1 -27 2 -33 19 -31 11 1 24 8 29 16 8 12 12 11 28 -5 10 -10 26
-18 35 -18 15 0 14 2 -4 15 -24 17 -39 60 -18 52 9 -4 14 11 17 56 3 34 4 63
4 64 -1 1 -18 -10 -37 -26z m-6 -68 c-8 -22 -24 -34 -36 -26 -9 5 21 43 34 43
5 0 5 -8 2 -17z"/>
<path d="M2017 795 c4 -16 8 -49 8 -73 0 -30 4 -41 13 -37 19 7 14 -17 -10
-42 -25 -26 -13 -31 20 -7 20 14 24 14 44 0 12 -9 25 -16 29 -16 12 0 17 37 7
54 -7 12 -5 16 10 16 10 0 27 9 36 19 18 19 17 19 -18 9 -27 -9 -39 -9 -48 0
-9 9 -8 12 6 12 13 0 7 8 -20 26 -21 14 -49 36 -62 48 l-24 21 9 -30z m77 -90
c14 -21 14 -25 2 -25 -19 0 -48 29 -41 41 10 15 22 10 39 -16z"/>
<path d="M743 773 c-7 -2 -13 -15 -13 -28 0 -18 6 -24 27 -27 14 -2 29 -9 31
-17 3 -9 0 -11 -8 -6 -8 5 -11 4 -7 -2 4 -6 0 -19 -8 -29 -14 -18 -14 -18 -10
3 2 12 -2 24 -11 27 -8 3 -14 -1 -14 -11 0 -13 -7 -14 -42 -9 -42 7 -42 7 -23
-14 10 -11 15 -20 12 -20 -17 0 -87 33 -87 41 0 5 -5 9 -11 9 -6 0 -8 -8 -4
-19 4 -15 1 -18 -17 -14 -14 3 -34 -4 -51 -17 -32 -26 -36 -46 -6 -29 15 7 49
9 103 4 91 -7 125 1 169 43 31 30 37 81 11 106 -16 17 -21 18 -41 9z m-67
-143 c15 0 25 -3 22 -6 -3 -3 -34 -2 -69 2 -48 6 -58 9 -39 14 14 4 33 3 42
-2 9 -4 29 -8 44 -8z"/>
<path d="M2242 768 c-39 -39 23 -121 99 -133 34 -5 57 -1 99 15 38 15 68 20
99 17 43 -5 43 -5 23 15 -12 12 -34 20 -56 21 -22 1 -36 6 -36 14 0 7 -4 13
-10 13 -5 0 -10 -5 -10 -10 0 -11 -58 -50 -74 -50 -5 0 -3 7 4 15 19 23 6 28
-28 11 -25 -13 -31 -13 -35 -2 -4 9 -14 12 -25 9 -11 -2 -23 0 -26 6 -4 6 -3
11 3 11 5 0 17 7 26 16 12 12 13 19 4 30 -14 17 -41 18 -57 2z m188 -104 c-46
-20 -60 -17 -25 5 17 10 36 16 44 13 8 -3 1 -10 -19 -18z"/>
<path d="M2509 740 l-24 -19 36 6 c31 4 39 1 57 -22 18 -22 23 -24 28 -12 3 9
3 21 -1 27 -3 5 0 10 7 10 8 0 22 6 32 13 16 12 10 14 -47 15 -51 2 -70 -2
-88 -18z"/>
<path d="M438 712 c-52 -3 -63 -16 -23 -26 16 -4 25 -13 25 -26 0 -24 15 -27
24 -5 8 22 47 34 76 23 23 -9 24 -8 6 10 -20 23 -43 28 -108 24z"/>
<path d="M822 668 c-5 -7 -19 -32 -31 -55 -22 -45 -53 -68 -77 -59 -8 3 -14
13 -14 21 0 12 6 15 21 10 15 -5 19 -4 15 4 -10 16 -46 13 -52 -4 -17 -43 58
-61 93 -22 28 32 76 117 65 117 -5 0 -14 -6 -20 -12z"/>
<path d="M2196 619 c43 -55 55 -64 86 -67 29 -2 39 1 48 19 15 26 -7 54 -33
43 -19 -7 -22 -20 -7 -29 6 -4 9 -2 8 3 -2 6 1 12 7 13 5 2 11 -3 13 -13 4
-19 -31 -33 -52 -21 -8 4 -28 27 -45 50 -17 23 -40 47 -53 54 -15 8 -7 -8 28
-52z"/>
<path d="M839 613 c-6 -16 -22 -40 -37 -55 -14 -16 -21 -28 -16 -28 17 0 50
42 62 78 13 39 6 43 -9 5z"/>
<path d="M2150 633 c0 -30 81 -115 95 -101 3 3 -7 11 -21 18 -14 8 -34 31 -45
52 -18 36 -29 47 -29 31z"/>
<path d="M911 568 c-18 -48 -22 -72 -17 -114 5 -48 4 -53 -12 -47 -15 6 -15 5
-3 -10 7 -9 20 -17 27 -17 16 0 19 31 4 46 -7 7 -1 9 20 6 34 -5 50 18 30 43
-13 16 -30 11 -30 -8 0 -8 3 -8 9 2 6 10 10 10 16 1 10 -16 -8 -32 -28 -24
-28 10 -31 48 -7 94 12 23 20 52 18 65 -2 18 -9 9 -27 -37z"/>
<path d="M2065 598 c4 -13 18 -40 31 -60 13 -21 24 -48 24 -62 0 -29 -26 -54
-42 -38 -13 13 -1 35 14 26 7 -5 8 -2 3 5 -11 19 -38 -11 -29 -32 14 -38 74
-4 74 42 0 20 -66 141 -77 141 -2 0 -1 -10 2 -22z"/>
<path d="M875 580 c-8 -16 -14 -46 -14 -67 l2 -38 6 41 c4 23 15 53 24 68 10
14 13 26 7 26 -5 0 -16 -13 -25 -30z"/>
<path d="M1940 589 c-9 -15 -8 -24 1 -35 16 -20 40 -17 46 5 7 27 38 19 40
-10 l2 -24 -8 25 -7 25 -6 -30 c-4 -18 -2 -33 5 -37 7 -4 8 -8 2 -8 -5 0 -19
-12 -29 -27 l-19 -26 29 7 28 7 -19 -21 c-11 -12 -33 -29 -48 -37 -21 -10 -26
-18 -18 -26 6 -8 6 -18 1 -27 -12 -19 -12 -61 -1 -79 7 -11 12 -4 20 24 6 21
23 54 39 74 39 49 55 80 48 96 -3 8 0 15 6 17 18 6 -1 78 -27 104 -30 30 -70
31 -85 3z m60 -194 c-23 -30 -44 -55 -47 -55 -6 0 7 21 25 43 8 9 12 17 9 17
-3 0 6 13 21 28 43 44 39 28 -8 -33z"/>
<path d="M2100 603 c0 -6 7 -17 17 -24 9 -8 24 -32 34 -54 10 -22 19 -32 19
-22 0 10 -6 30 -14 45 -16 31 -56 70 -56 55z"/>
<path d="M836 551 c-28 -54 -31 -65 -17 -57 12 8 53 97 47 103 -2 3 -16 -18
-30 -46z"/>
<path d="M1010 578 c-46 -49 -13 -163 61 -212 23 -15 43 -39 50 -61 18 -49 33
-44 26 10 -5 51 9 57 31 12 10 -20 10 -32 2 -48 -14 -25 -6 -36 14 -19 13 10
19 9 31 -4 30 -29 32 -17 8 34 -25 52 -63 86 -87 77 -19 -8 -28 3 -16 18 8 9
3 14 -18 18 -16 3 -39 15 -53 26 -24 20 -24 20 -1 14 29 -7 28 4 -3 29 -20 16
-23 23 -14 34 8 10 8 14 0 15 -6 1 -16 2 -23 3 -6 0 -13 8 -15 16 -4 12 -3 12
5 2 7 -11 11 -8 16 10 6 21 7 21 17 6 21 -36 68 -12 53 27 -9 23 -60 18 -84
-7z m30 -115 c0 -1 -7 0 -16 4 -26 10 2 -34 34 -55 15 -9 28 -24 30 -32 1 -8
-18 6 -43 32 -25 26 -45 56 -45 67 0 20 1 20 20 4 11 -10 20 -19 20 -20z"/>
<path d="M1125 574 c-22 -22 -16 -59 10 -59 11 0 21 8 23 19 3 11 0 16 -7 11
-6 -3 -8 -11 -5 -17 4 -6 1 -9 -7 -6 -20 7 -17 28 6 44 18 12 28 10 80 -16 33
-17 69 -30 80 -30 11 0 -13 16 -54 35 -81 39 -102 42 -126 19z"/>
<path d="M1765 554 c-53 -28 -62 -35 -37 -30 19 3 47 15 63 27 40 28 93 23 97
-10 3 -16 0 -22 -10 -18 -7 2 -12 11 -10 18 3 11 1 12 -9 2 -17 -17 3 -38 26
-30 27 11 30 39 6 59 -32 25 -45 23 -126 -18z"/>
<path d="M2150 582 c0 -14 61 -94 67 -89 5 6 -54 97 -62 97 -3 0 -5 -4 -5 -8z"/>
<path d="M2310 540 c-12 -8 -10 -10 10 -10 20 0 22 -2 10 -10 -20 -13 -53 -13
-45 0 3 6 -1 7 -10 3 -13 -5 -14 -7 -3 -14 28 -18 88 -7 88 16 0 7 -7 16 -16
19 -19 7 -16 8 -34 -4z"/>
<path d="M682 523 c-19 -8 5 -33 32 -32 20 0 20 1 2 8 -18 7 -18 8 -2 14 10 4
27 2 38 -4 11 -6 22 -8 25 -5 15 14 -66 31 -95 19z"/>
<path d="M1178 509 c-42 -24 -4 -57 50 -45 l27 6 -27 -15 c-28 -16 -45 -55
-33 -74 10 -18 25 -13 57 19 30 30 30 30 24 6 -8 -31 2 -56 21 -56 9 0 12 -6
8 -19 -7 -24 18 -45 44 -36 21 6 38 46 32 75 -1 8 -11 33 -20 55 -10 22 -22
49 -26 60 -5 12 -9 15 -12 8 -3 -7 7 -38 21 -69 29 -63 32 -84 14 -102 -17
-17 -38 -15 -38 4 0 8 5 12 10 9 6 -3 10 -1 10 4 0 6 -8 11 -17 11 -13 0 -14
3 -5 12 7 7 12 23 11 37 l-1 26 -11 -27 c-6 -16 -14 -28 -19 -28 -7 0 -6 17 1
75 1 6 6 3 11 -5 8 -13 10 -13 10 1 0 24 -23 39 -51 33 l-24 -5 25 14 24 15
-39 11 c-48 13 -55 13 -77 0z m67 -8 c19 -8 19 -8 0 -18 -11 -5 -31 -7 -45 -2
-16 4 -19 7 -7 8 9 1 17 6 17 11 0 12 7 12 35 1z m49 -55 c-3 -9 -10 -13 -15
-10 -5 3 -12 -2 -15 -10 -3 -9 -10 -14 -14 -11 -5 3 -11 1 -15 -5 -3 -5 -11
-10 -17 -10 -7 0 -6 6 2 15 7 8 9 15 4 15 -14 0 29 27 51 32 25 5 27 4 19 -16z"/>
<path d="M1761 508 c-26 -7 -31 -12 -21 -18 8 -5 17 -5 20 -1 3 5 20 6 39 3
l34 -5 -24 -13 c-27 -15 -42 -18 -35 -6 6 9 -61 8 -71 -1 -3 -4 -3 -10 1 -14
4 -4 10 -2 14 4 6 9 11 7 19 -7 10 -14 9 -21 -3 -31 -8 -7 -13 -18 -10 -25 3
-7 1 -16 -3 -19 -5 -2 -12 10 -16 28 l-8 32 -4 -29 c-3 -18 2 -35 12 -45 15
-15 17 -14 31 3 8 11 12 28 9 37 -3 10 -2 20 3 23 6 3 9 -2 8 -11 -1 -22 49
-42 66 -25 9 9 7 19 -10 42 l-23 30 24 0 c35 0 52 23 32 44 -18 18 -34 19 -84
4z m18 -57 c8 -5 15 -19 16 -30 1 -15 -2 -18 -10 -11 -7 5 -15 8 -18 5 -4 -3
-5 -2 -2 2 3 3 -2 15 -12 25 -13 14 -13 18 -2 18 8 0 20 -4 28 -9z"/>
<path d="M1681 488 c0 -10 -13 -42 -27 -71 -30 -60 -28 -99 5 -117 25 -13 51
-3 51 20 0 24 -19 35 -33 21 -9 -9 -8 -11 6 -6 12 5 17 2 17 -9 0 -19 -21 -21
-38 -4 -18 18 -15 52 9 97 11 22 19 50 16 63 -3 14 -5 16 -6 6z"/>
<path d="M742 480 c-47 -7 -79 -31 -67 -50 5 -8 20 -10 41 -7 31 5 33 4 24
-13 -14 -27 -12 -70 3 -70 25 0 47 25 53 60 l6 35 -21 -32 c-11 -18 -22 -33
-24 -33 -6 0 -1 39 6 46 9 10 9 24 0 23 -20 -3 -57 3 -45 8 6 2 9 10 6 15 -5
8 3 9 24 5 18 -4 34 -2 38 4 9 15 4 16 -44 9z"/>
<path d="M2236 483 c-3 -4 -6 -17 -6 -31 0 -20 3 -22 14 -13 11 9 15 8 20 -5
5 -13 10 -14 18 -6 6 6 24 8 39 5 35 -7 53 22 25 42 -17 13 -99 19 -110 8z
m34 -15 c0 5 11 10 25 10 14 0 25 -4 25 -9 0 -4 6 -9 13 -12 6 -2 3 -3 -7 -1
-11 2 -26 -2 -34 -8 -10 -9 -18 -6 -35 12 -12 13 -14 18 -4 11 9 -8 17 -9 17
-3z"/>
<path d="M788 453 c-11 -14 -10 -15 10 -9 17 6 21 4 16 -8 -5 -13 -2 -15 12
-9 18 6 18 6 2 -14 -21 -23 -23 -44 -6 -61 17 -17 26 -15 38 8 7 13 8 26 1 38
-9 16 -10 16 -16 0 -4 -9 -3 -22 1 -29 4 -8 3 -9 -4 -5 -15 9 -16 43 -2 51 13
8 -4 40 -24 48 -8 3 -20 -1 -28 -10z"/>
<path d="M2146 445 c-14 -13 -26 -31 -26 -39 0 -24 20 -30 38 -12 14 14 15 18
3 25 -7 5 -10 14 -7 20 4 6 12 9 17 6 5 -4 9 1 9 9 0 21 -2 20 -34 -9z"/>
<path d="M2192 432 c-19 -43 -19 -76 0 -88 16 -10 38 18 38 50 -1 31 -1 31
-14 7 -11 -20 -14 -21 -19 -6 -10 24 -9 27 5 19 7 -5 8 -3 3 6 -4 7 -2 16 5
20 7 4 10 14 7 21 -3 8 -13 -4 -25 -29z"/>
<path d="M2286 421 c-4 -5 -3 -17 0 -28 5 -15 4 -15 -5 -3 -6 8 -11 11 -11 5
0 -5 -7 -1 -15 9 -13 17 -15 18 -15 3 0 -21 35 -57 54 -57 20 0 27 26 16 55
-10 27 -16 30 -24 16z"/>
<path d="M1882 345 c-16 -14 -33 -37 -37 -52 -3 -16 -14 -36 -22 -45 -9 -11
-11 -18 -5 -18 6 0 20 9 31 21 12 13 21 17 26 10 3 -6 14 -11 23 -11 12 0 13
3 4 12 -17 17 -15 58 5 80 26 29 9 31 -25 3z"/>
<path d="M1420 328 c0 -12 -7 -41 -16 -65 -9 -24 -14 -53 -10 -67 8 -33 39
-50 66 -36 23 12 27 50 5 50 -8 0 -15 -5 -15 -11 0 -5 5 -7 10 -4 6 3 10 2 10
-3 0 -14 -25 -21 -40 -12 -15 10 -16 60 -1 89 14 25 14 68 1 76 -6 3 -10 -4
-10 -17z"/>
<path d="M1593 333 c-3 -9 -1 -36 5 -60 15 -54 15 -76 1 -90 -13 -13 -39 -6
-39 9 0 5 5 6 10 3 6 -3 10 -1 10 4 0 6 -7 11 -15 11 -9 0 -15 -9 -15 -24 0
-49 73 -41 86 10 4 15 -1 44 -12 72 -10 26 -17 55 -16 65 1 22 -7 22 -15 0z"/>
<path d="M1499 203 c-1 -10 -1 -23 0 -30 1 -6 -8 -18 -19 -26 -12 -8 -17 -17
-13 -20 5 -3 22 7 37 23 19 21 26 36 21 50 -8 25 -25 26 -26 3z"/>
<path d="M1503 118 c-7 -9 -8 -21 -1 -38 l10 -25 9 23 c11 30 -2 60 -18 40z"/>
</g>
</svg>
