<svg width="24" height="24" viewBox="0 0 24 24" fill="none" xmlns="http://www.w3.org/2000/svg">
<path d="M9 13H9.77778L10.8889 11.5L13 15L14.3333 13H15M8 4.99999H7C5.89543 4.99999 5 5.89542 5 6.99999V19C5 20.1045 5.89543 21 7 21H17C18.1046 21 19 20.1045 19 19V6.99999C19 5.89543 18.1046 4.99999 17 4.99999H16M8 4.99999C8 6.10456 8.89543 7 10 7H14C15.1046 7 16 6.10456 16 4.99999M8 4.99999C8 3.89542 8.89543 3 10 3H14C15.1046 3 16 3.89542 16 4.99999" stroke="white" stroke-width="2" stroke-linecap="round" stroke-linejoin="round"/>
</svg>
