<svg width="24" height="24" viewBox="0 0 24 24" fill="none" xmlns="http://www.w3.org/2000/svg">
<path d="M8 3H9C9 2.6312 8.79702 2.29234 8.47186 2.11833C8.1467 1.94431 7.75216 1.96338 7.4453 2.16795L8 3ZM15.6641 4.1094L16.2188 3.27735V3.27735L15.6641 4.1094ZM14 3L14.5547 2.16795C14.2478 1.96338 13.8533 1.94431 13.5281 2.11833C13.203 2.29234 13 2.6312 13 3H14ZM7 4.5C7 5.05228 7.44772 5.5 8 5.5C8.55228 5.5 9 5.05228 9 4.5H7ZM13 4.5C13 5.05228 13.4477 5.5 14 5.5C14.5523 5.5 15 5.05228 15 4.5H13ZM16 6.60555V10H18V6.60555H16ZM13 13H9V15H13V13ZM6 10V6.60555H4V10H6ZM6.8906 4.94145L8.5547 3.83205L7.4453 2.16795L5.7812 3.27735L6.8906 4.94145ZM16.2188 3.27735L14.5547 2.16795L13.4453 3.83205L15.1094 4.94145L16.2188 3.27735ZM7 3V4.5H9V3H7ZM13 3V4.5H15V3H13ZM9 13C7.34315 13 6 11.6569 6 10H4C4 12.7614 6.23858 15 9 15V13ZM16 10C16 11.6569 14.6569 13 13 13V15C15.7614 15 18 12.7614 18 10H16ZM18 6.60555C18 5.26814 17.3316 4.01921 16.2188 3.27735L15.1094 4.94145C15.6658 5.31238 16 5.93685 16 6.60555H18ZM6 6.60555C6 5.93684 6.3342 5.31238 6.8906 4.94145L5.7812 3.27735C4.6684 4.01921 4 5.26814 4 6.60555H6ZM10 14V20H12V14H10ZM12 22H14V20H12V22ZM16 20V18.3636H14V20H16ZM16 18.3636H17V16.3636H16V18.3636ZM16 18.3636V18.3636V16.3636C14.8954 16.3636 14 17.2591 14 18.3636H16ZM14 22C15.1046 22 16 21.1046 16 20H14V22ZM10 20C10 21.1046 10.8954 22 12 22V20H10ZM19 17.3632C19 17.6393 18.7761 17.8632 18.5 17.8632V19.8632C19.8807 19.8632 21 18.7439 21 17.3632H19ZM18.5 17.8632C18.2235 17.8632 18 17.6394 18 17.3636H16C16 18.7447 17.1197 19.8632 18.5 19.8632V17.8632ZM18 17.3636C18 17.0871 18.2243 16.8632 18.5 16.8632V14.8632C17.1189 14.8632 16 15.9833 16 17.3636H18ZM18.5 16.8632C18.7761 16.8632 19 17.087 19 17.3632H21C21 15.9825 19.8807 14.8632 18.5 14.8632V16.8632Z" fill="white"/>
</svg>
