<svg width="18" height="17" viewBox="0 0 18 17" fill="none" xmlns="http://www.w3.org/2000/svg">
<path d="M9 0.945801C4.30588 0.945801 0.5 4.5278 0.5 8.9458C0.5 13.3638 4.30588 16.9458 9 16.9458C13.6941 16.9458 17.5 13.3638 17.5 8.9458C17.5 4.5278 13.6941 0.945801 9 0.945801ZM13.7508 7.41713L8.39579 12.4571C8.26263 12.5825 8.08271 12.6525 7.895 12.6525C7.70729 12.6525 7.52667 12.5825 7.39421 12.4571L4.94833 10.1551C4.67137 9.89447 4.67137 9.47313 4.94833 9.21247C5.22529 8.9518 5.67296 8.9518 5.94992 9.21247L7.895 11.0431L12.7492 6.47447C13.0262 6.2138 13.4738 6.2138 13.7508 6.47447C14.0278 6.73513 14.0278 7.15647 13.7508 7.41713Z" fill="#3A3A97"/>
</svg>
