<svg width="60" height="60" viewBox="0 0 60 60" fill="none" xmlns="http://www.w3.org/2000/svg">
<g filter="url(#filter0_d_877_3744)">
<circle cx="29.7626" cy="26.3095" r="26.3095" fill="#F2FFF5"/>
</g>
<path d="M49.5953 26.7654C49.5953 15.566 40.5287 6.47656 29.3572 6.47656C18.1858 6.47656 9.11914 15.566 9.11914 26.7654C9.11914 36.5852 16.081 44.7616 25.3096 46.6484V32.852H21.262V26.7654H25.3096V21.6932C25.3096 17.7774 28.487 14.5921 32.3929 14.5921H37.4525V20.6787H33.4049C32.2918 20.6787 31.381 21.5917 31.381 22.7076V26.7654H37.4525V32.852H31.381V46.9528C41.6013 45.9383 49.5953 37.2953 49.5953 26.7654Z" fill="#32794F"/>
<defs>
<filter id="filter0_d_877_3744" x="0.21503" y="0" width="59.0953" height="59.0953" filterUnits="userSpaceOnUse" color-interpolation-filters="sRGB">
<feFlood flood-opacity="0" result="BackgroundImageFix"/>
<feColorMatrix in="SourceAlpha" type="matrix" values="0 0 0 0 0 0 0 0 0 0 0 0 0 0 0 0 0 0 127 0" result="hardAlpha"/>
<feOffset dy="3.2381"/>
<feGaussianBlur stdDeviation="1.61905"/>
<feComposite in2="hardAlpha" operator="out"/>
<feColorMatrix type="matrix" values="0 0 0 0 0 0 0 0 0 0 0 0 0 0 0 0 0 0 0.25 0"/>
<feBlend mode="normal" in2="BackgroundImageFix" result="effect1_dropShadow_877_3744"/>
<feBlend mode="normal" in="SourceGraphic" in2="effect1_dropShadow_877_3744" result="shape"/>
</filter>
</defs>
</svg>
