<svg width="186" height="49" viewBox="0 0 186 49" fill="none" xmlns="http://www.w3.org/2000/svg">
<path d="M11.9642 15.3756L14.2791 14.4794V32.1526L11.9642 32.9989V25.7554H4.96961V32.1526L2.62979 32.9989V25.7554H0.613567L1.33543 24.2868H2.62979V15.3756L4.96961 14.4794V24.2868H11.9642V15.3756ZM25.1753 19.9805C26.0714 19.9805 26.8181 20.2211 27.4155 20.7024C28.0129 21.1836 28.3116 21.8972 28.3116 22.8431C28.3116 23.6064 27.8968 24.461 27.067 25.4069C26.2539 26.3362 25.2914 27.1908 24.1796 27.9708C23.0844 28.7507 22.1468 29.2983 21.3668 29.6136C21.7817 30.2774 22.2546 30.742 22.7857 31.0075C23.3167 31.2565 23.939 31.3809 24.6525 31.3809C25.4491 31.3809 26.2373 31.1818 27.0172 30.7835C27.8138 30.3687 28.4693 29.8376 28.9837 29.1904L29.2824 29.7132C28.4693 30.7586 27.6063 31.5635 26.6937 32.1277C25.781 32.6753 24.6608 32.9491 23.3333 32.9491C22.321 32.9491 21.4166 32.7002 20.6201 32.2023C19.8235 31.7045 19.2012 31.0407 18.7532 30.211C18.3051 29.3647 18.0811 28.452 18.0811 27.4729C18.0811 26.2449 18.413 25.0501 19.0768 23.8885C19.7406 22.7269 20.6201 21.7893 21.7153 21.0757C22.8105 20.3456 23.9639 19.9805 25.1753 19.9805ZM23.8809 21.5487C23.1507 21.5487 22.4953 21.781 21.9144 22.2457C21.3502 22.7103 20.9022 23.3077 20.5703 24.0379C20.255 24.768 20.0974 25.5231 20.0974 26.303C20.0974 27.3319 20.338 28.2114 20.8192 28.9415C21.5162 28.6262 22.2712 28.1533 23.0844 27.5227C23.8975 26.8755 24.5862 26.1785 25.1504 25.4318C25.7146 24.685 25.9967 24.0047 25.9967 23.3907C25.9967 22.1627 25.2914 21.5487 23.8809 21.5487ZM38.7527 20.2045C39.5658 20.2045 40.3292 20.3788 41.0427 20.7273C41.7729 21.0757 42.3039 21.6068 42.6358 22.3203L40.8436 23.2911C40.5781 22.9094 40.213 22.5693 39.7484 22.2706C39.2837 21.9553 38.7859 21.7976 38.2549 21.7976C37.4086 21.7976 36.6701 22.0216 36.0395 22.4697C35.4089 22.9011 34.9277 23.4902 34.5958 24.237C34.2639 24.9837 34.098 25.8135 34.098 26.7262C34.098 28.0371 34.322 29.1075 34.77 29.9372C35.2181 30.7503 35.9234 31.1569 36.8858 31.1569C38.2466 31.1569 39.1842 30.6093 39.6986 29.514C40.213 28.4188 40.4702 27.224 40.4702 25.9296V24.8095L42.6607 23.8885V30.435C42.6607 30.6508 42.7188 30.8582 42.8349 31.0573C42.9511 31.2565 43.1253 31.356 43.3577 31.356C43.8389 31.356 44.2787 31.0241 44.6769 30.3604L45.0503 30.7586C44.8512 31.3228 44.5027 31.8041 44.0049 32.2023C43.507 32.584 43.0092 32.7748 42.5114 32.7748C41.7978 32.7748 41.2668 32.5093 40.9183 31.9783C40.5864 31.4473 40.4205 30.742 40.4205 29.8625H40.3707C39.9558 30.742 39.3916 31.4805 38.678 32.0779C37.9811 32.6587 37.2426 32.9491 36.4627 32.9491C35.0521 32.9491 33.9818 32.4679 33.2516 31.5054C32.5381 30.5263 32.1813 29.2236 32.1813 27.5974C32.1813 26.303 32.4717 25.0916 33.0525 23.9632C33.6333 22.8182 34.4216 21.9055 35.4172 21.2251C36.4295 20.5447 37.5413 20.2045 38.7527 20.2045ZM50.8051 30.5595C50.8051 30.7586 50.8632 30.9495 50.9794 31.132C51.0956 31.3145 51.2947 31.4058 51.5768 31.4058C51.8091 31.4058 52.0497 31.3062 52.2987 31.1071C52.5642 30.8914 52.7633 30.6674 52.8961 30.435L53.3192 30.8084C53.0371 31.356 52.6471 31.8207 52.1493 32.2023C51.6515 32.584 51.1536 32.7748 50.6558 32.7748C49.2619 32.7748 48.5649 31.9368 48.5649 30.2608V10.5963L50.8051 9.65046V30.5595ZM59.513 20.2045H62.9729L62.2262 21.7976H59.513V30.5595C59.513 30.8084 59.5876 31.0158 59.737 31.1818C59.8863 31.3311 60.0855 31.4058 60.3344 31.4058C60.6829 31.4058 61.1641 31.0822 61.7781 30.435L62.1266 30.8084C61.8113 31.439 61.4296 31.9119 60.9816 32.2272C60.5501 32.5259 60.1353 32.7085 59.737 32.7748C59.3553 32.8578 59.1645 32.8661 59.1645 32.7997C59.1811 32.7997 59.206 32.7914 59.2392 32.7748C59.2723 32.7748 59.3221 32.7748 59.3885 32.7748C57.9282 32.7748 57.198 31.9368 57.198 30.2608V21.7976H55.3312L56.1028 20.2045H57.198V14.4794L59.513 13.5833V20.2045ZM68.7155 27.3485H68.8151C68.981 26.4358 69.2714 25.4152 69.6863 24.2868C70.1177 23.1418 70.6902 22.1378 71.4038 21.2749C72.1174 20.412 72.9554 19.9805 73.9179 19.9805C74.4323 19.9805 74.8057 20.1714 75.038 20.553C75.2869 20.9181 75.428 21.333 75.4612 21.7976C75.5109 22.2623 75.5358 22.8762 75.5358 23.6396V30.5595C75.5358 30.7586 75.5939 30.9495 75.7101 31.132C75.8428 31.3145 76.042 31.4058 76.3075 31.4058C76.7389 31.4058 77.1787 31.0822 77.6267 30.435L77.9254 30.8084C77.6931 31.356 77.3197 31.8207 76.8053 32.2023C76.3075 32.584 75.8013 32.7748 75.2869 32.7748C73.9925 32.7748 73.3454 31.9368 73.3454 30.2608V23.6645C73.3454 23.4488 73.2956 23.2496 73.196 23.0671C73.113 22.8845 72.9637 22.7933 72.748 22.7933C71.9016 22.7933 71.1715 23.4571 70.5575 24.7846C69.9435 26.0956 69.4706 27.5476 69.1387 29.1407C68.8068 30.7171 68.6408 31.7875 68.6408 32.3517L66.4255 32.9989V10.5963L68.7155 9.65046V27.3485ZM91.4274 31.3062C91.4274 32.8661 91.1121 34.3264 90.4815 35.6872C89.8675 37.0479 89.0461 38.1349 88.0173 38.948C86.9884 39.7611 85.8932 40.1677 84.7316 40.1677C84.2835 40.1677 83.8604 40.1013 83.4621 39.9686C83.0638 39.8358 82.649 39.6118 82.2175 39.2965L83.9599 37.0811C84.3084 37.4296 84.715 37.7117 85.1796 37.9274C85.6609 38.1432 86.1089 38.251 86.5238 38.251C87.0382 38.251 87.5028 37.944 87.9177 37.33C88.3326 36.716 88.6562 35.8697 88.8885 34.7911C89.1374 33.7124 89.2618 32.4927 89.2618 31.132C89.2618 28.0454 89.2701 26.0624 89.2867 25.1829V23.6894H89.1374C87.7766 29.8625 86.0093 32.9491 83.8355 32.9491C83.3542 32.9491 82.9974 32.8495 82.7651 32.6504C82.5328 32.4679 82.3751 32.1277 82.2922 31.6298C82.2092 31.132 82.1677 30.3769 82.1677 29.3647V22.3452C82.1677 22.0797 82.1013 21.8557 81.9686 21.6732C81.8358 21.4906 81.6699 21.3993 81.4707 21.3993C81.0559 21.3993 80.6161 21.7395 80.1515 22.4199L79.7532 22.0216C80.1183 21.2417 80.4751 20.7107 80.8236 20.4286C81.1886 20.1465 81.7114 20.0054 82.3917 20.0054C83.0555 20.0054 83.5534 20.2211 83.8852 20.6526C84.2171 21.0675 84.3831 21.6814 84.3831 22.4946V29.29C84.3831 29.904 84.5573 30.211 84.9058 30.211C85.3207 30.211 85.8517 29.6468 86.4989 28.5184C87.1461 27.3899 87.7186 26.0873 88.2164 24.6104C88.7142 23.1169 88.9631 21.9055 88.9631 20.9762L91.4274 19.8561V31.3062ZM103.541 23.2413C104.487 23.0588 105.267 22.9675 105.881 22.9675C107.291 22.9675 108.486 23.316 109.465 24.013C110.461 24.6933 110.958 25.7056 110.958 27.0498C110.958 28.593 110.378 29.9206 109.216 31.0324C108.071 32.1277 106.669 32.9574 105.009 33.5216C103.35 34.0858 101.765 34.3845 100.255 34.4177L100.106 33.8203C102.246 33.3722 104.146 32.6089 105.806 31.5303C107.465 30.435 108.295 28.9996 108.295 27.224C108.295 26.5768 108.096 25.996 107.698 25.4816C107.299 24.9672 106.785 24.5689 106.154 24.2868C105.54 24.0047 104.893 23.8636 104.213 23.8636C103.051 23.8636 101.914 24.0711 100.803 24.4859L100.604 23.8138C102.047 23.1998 103.333 22.395 104.462 21.3993C105.59 20.4037 106.154 19.3001 106.154 18.0887C106.154 17.4582 105.955 16.952 105.557 16.5704C105.175 16.1887 104.644 15.9978 103.964 15.9978C102.985 15.9978 102.197 16.3629 101.599 17.0931C101.002 17.8066 100.579 18.6613 100.33 19.6569C100.081 20.636 99.9563 21.5736 99.9563 22.4697V32.0032L97.6414 32.8495V23.8387C97.6414 22.0631 97.9899 20.4866 98.6869 19.1093C99.4004 17.732 100.388 16.6616 101.649 15.8983C102.91 15.1183 104.346 14.7284 105.955 14.7284C106.752 14.7284 107.424 14.9358 107.971 15.3507C108.519 15.7655 108.793 16.3546 108.793 17.118C108.793 18.2132 108.237 19.3167 107.125 20.4286C106.03 21.5238 104.819 22.4282 103.491 23.1418L103.541 23.2413ZM116.278 17.6905L115.457 17.9892L114.436 12.8117L117.125 11.8907L116.278 17.6905ZM117.1 30.5595C117.1 30.8084 117.158 31.0158 117.274 31.1818C117.407 31.3311 117.589 31.4058 117.822 31.4058C118.004 31.4058 118.203 31.3228 118.419 31.1569C118.651 30.9909 118.884 30.7503 119.116 30.435L119.514 30.8084C119.133 31.522 118.668 32.0281 118.12 32.3268C117.589 32.6255 117.1 32.7748 116.652 32.7748C116.054 32.7748 115.59 32.584 115.258 32.2023C114.942 31.8207 114.785 31.1735 114.785 30.2608V21.2002L117.1 20.3041V30.5595ZM125.735 20.2045H129.195L128.448 21.7976H125.735V30.5595C125.735 30.8084 125.809 31.0158 125.959 31.1818C126.108 31.3311 126.307 31.4058 126.556 31.4058C126.905 31.4058 127.386 31.0822 128 30.435L128.348 30.8084C128.033 31.439 127.651 31.9119 127.203 32.2272C126.772 32.5259 126.357 32.7085 125.959 32.7748C125.577 32.8578 125.386 32.8661 125.386 32.7997C125.403 32.7997 125.428 32.7914 125.461 32.7748C125.494 32.7748 125.544 32.7748 125.61 32.7748C124.15 32.7748 123.42 31.9368 123.42 30.2608V21.7976H121.553L122.324 20.2045H123.42V14.4794L125.735 13.5833V20.2045ZM138.648 19.9805C139.544 19.9805 140.291 20.2211 140.889 20.7024C141.486 21.1836 141.785 21.8972 141.785 22.8431C141.785 23.6064 141.37 24.461 140.54 25.4069C139.727 26.3362 138.765 27.1908 137.653 27.9708C136.557 28.7507 135.62 29.2983 134.84 29.6136C135.255 30.2774 135.728 30.742 136.259 31.0075C136.79 31.2565 137.412 31.3809 138.126 31.3809C138.922 31.3809 139.71 31.1818 140.49 30.7835C141.287 30.3687 141.942 29.8376 142.457 29.1904L142.755 29.7132C141.942 30.7586 141.079 31.5635 140.167 32.1277C139.254 32.6753 138.134 32.9491 136.806 32.9491C135.794 32.9491 134.89 32.7002 134.093 32.2023C133.297 31.7045 132.674 31.0407 132.226 30.211C131.778 29.3647 131.554 28.452 131.554 27.4729C131.554 26.2449 131.886 25.0501 132.55 23.8885C133.214 22.7269 134.093 21.7893 135.188 21.0757C136.284 20.3456 137.437 19.9805 138.648 19.9805ZM137.354 21.5487C136.624 21.5487 135.968 21.781 135.388 22.2457C134.823 22.7103 134.375 23.3077 134.043 24.0379C133.728 24.768 133.57 25.5231 133.57 26.303C133.57 27.3319 133.811 28.2114 134.292 28.9415C134.989 28.6262 135.744 28.1533 136.557 27.5227C137.371 26.8755 138.059 26.1785 138.623 25.4318C139.188 24.685 139.47 24.0047 139.47 23.3907C139.47 22.1627 138.765 21.5487 137.354 21.5487Z" fill="#32794F"/>
<path d="M141.233 37.204C143.406 37.6807 145.155 36.8899 147.569 35.7643H147.568C146.896 33.8304 146.354 31.8539 145.945 29.8477C143.516 31.5335 136.625 35.665 141.233 37.2041L141.233 37.204Z" fill="#32794F"/>
<path d="M148.276 35.4091C157.093 29.6969 168.832 26.5972 179.12 29.7126C181.738 17.4185 175.094 12.4864 166.03 14.7379C164.946 15.7692 165.47 19.7904 163.171 20.0366C160.401 19.8167 160.846 17.911 161.197 15.1097C158.884 14.3517 156.814 14.0568 155.005 14.1638C157.257 20.6227 155.005 24.0601 146.18 25.1862C146.17 28.1973 146.85 31.671 148.276 35.4092L148.276 35.4091Z" fill="url(#paint0_linear_820_1843)"/>
<path d="M168.14 36.1419C161.334 36.189 155.737 39.3306 151.182 41.8595C154.355 47.9176 159.235 46.7864 162.92 45.09C169.203 48.2317 173.56 46.3413 177.021 36.9326C174.094 36.3771 171.12 36.1123 168.141 36.1419H168.14Z" fill="url(#paint1_linear_820_1843)"/>
<path d="M163.17 19.2506C163.473 19.2506 163.725 19.1564 163.793 18.9259C165.552 10.9519 169.364 10.1246 169.364 10.1246L167.27 7.99902C161.191 10.3445 160.584 20.0416 163.17 19.2506Z" fill="#0A6835"/>
<path d="M179.318 32.0988C179.318 32.3158 179.142 32.4914 178.926 32.4914C178.709 32.4914 178.533 32.3158 178.533 32.0988V30.376C177.485 30.1405 176.381 29.9257 175.187 29.7529C175.066 30.1142 175.516 32.0568 174.794 32.0042C174.061 32.067 174.522 29.9936 174.401 29.6426C173.207 29.4962 171.935 29.3862 170.59 29.3285C170.474 29.6897 170.925 31.6587 170.197 31.606C169.474 31.6638 169.925 29.6477 169.804 29.2971V29.2975C168.708 29.2697 167.61 29.2978 166.516 29.3811C166.354 29.7321 166.914 33.3395 166.123 33.2295C165.328 33.35 165.888 29.7843 165.731 29.4545C164.605 29.575 163.489 29.7708 162.39 30.041V31.8631C162.39 32.0797 162.214 32.2558 161.998 32.2558C161.781 32.2558 161.605 32.0797 161.605 31.8631V30.2401C160.591 30.514 159.591 30.8391 158.61 31.2138V33.5385C158.61 33.7554 158.434 33.9311 158.217 33.9311C158.001 33.9311 157.824 33.7554 157.824 33.5385V31.4757C156.678 31.9417 155.583 32.4442 154.536 32.9625V35.1827C154.536 35.3997 154.361 35.5753 154.144 35.5753C153.927 35.5753 153.751 35.3997 153.751 35.1827V33.3814C152.631 33.9573 151.61 34.5125 150.562 35.0779V36.9523C150.562 37.1692 150.387 37.3449 150.17 37.3449C149.953 37.3449 149.777 37.1692 149.777 36.9523V35.4969C148.85 35.9943 147.966 36.4497 147.112 36.8424V40.4341C145.934 42.3139 146.405 37.4706 146.327 37.1879C145.386 37.6021 144.398 37.8961 143.384 38.0623C143.269 38.4184 143.709 40.3033 142.991 40.2562C142.285 40.3033 142.709 38.4812 142.599 38.1306H142.598C141.564 38.1901 140.538 37.921 139.666 37.3607C137.818 54.8543 155.898 33.9312 168.113 35.3552C176.397 35.2347 183.005 37.4808 186 38.9681V32.989C185.088 32.5354 184.153 32.1296 183.199 31.7742V33.1304C183.199 33.3473 183.023 33.523 182.806 33.523C182.589 33.523 182.413 33.3473 182.413 33.1304V31.4759C181.487 31.1567 180.445 30.8371 179.271 30.5493L179.318 32.0988Z" fill="#0A6835"/>
<defs>
<linearGradient id="paint0_linear_820_1843" x1="162.938" y1="14.1426" x2="162.887" y2="44.8625" gradientUnits="userSpaceOnUse">
<stop stop-color="#DC2F39"/>
<stop offset="0.459913" stop-color="#DC2F39" stop-opacity="0.77"/>
<stop offset="1" stop-color="#DC2F39" stop-opacity="0"/>
</linearGradient>
<linearGradient id="paint1_linear_820_1843" x1="164.101" y1="36.1396" x2="164.101" y2="46.4931" gradientUnits="userSpaceOnUse">
<stop stop-color="#DC2F39" stop-opacity="0.76"/>
<stop offset="0.563969" stop-color="#DC2F39" stop-opacity="0.603917"/>
<stop offset="1" stop-color="#DC2F39" stop-opacity="0.3"/>
</linearGradient>
</defs>
</svg>
