<svg width="60" height="60" viewBox="0 0 60 60" fill="none" xmlns="http://www.w3.org/2000/svg">
<g filter="url(#filter0_d_877_3747)">
<circle cx="29.8584" cy="26.3095" r="26.3095" fill="#F2FFF5"/>
</g>
<path d="M21.7636 8.0957C16.1758 8.0957 11.6445 12.627 11.6445 18.2148V34.4052C11.6445 39.993 16.1758 44.5243 21.7636 44.5243H37.9541C43.5418 44.5243 48.0731 39.993 48.0731 34.4052V18.2148C48.0731 12.627 43.5418 8.0957 37.9541 8.0957H21.7636ZM42.0017 12.1433C43.1188 12.1433 44.0255 13.05 44.0255 14.1671C44.0255 15.2843 43.1188 16.1909 42.0017 16.1909C40.8845 16.1909 39.9779 15.2843 39.9779 14.1671C39.9779 13.05 40.8845 12.1433 42.0017 12.1433ZM29.8588 16.1909C35.4466 16.1909 39.9779 20.7223 39.9779 26.31C39.9779 31.8977 35.4466 36.429 29.8588 36.429C24.2711 36.429 19.7398 31.8977 19.7398 26.31C19.7398 20.7223 24.2711 16.1909 29.8588 16.1909ZM29.8588 20.2386C28.2486 20.2386 26.7043 20.8782 25.5657 22.0168C24.4271 23.1555 23.7874 24.6997 23.7874 26.31C23.7874 27.9202 24.4271 29.4645 25.5657 30.6031C26.7043 31.7418 28.2486 32.3814 29.8588 32.3814C31.4691 32.3814 33.0133 31.7418 34.152 30.6031C35.2906 29.4645 35.9302 27.9202 35.9302 26.31C35.9302 24.6997 35.2906 23.1555 34.152 22.0168C33.0133 20.8782 31.4691 20.2386 29.8588 20.2386Z" fill="#32794F"/>
<defs>
<filter id="filter0_d_877_3747" x="0.310733" y="0" width="59.0953" height="59.0953" filterUnits="userSpaceOnUse" color-interpolation-filters="sRGB">
<feFlood flood-opacity="0" result="BackgroundImageFix"/>
<feColorMatrix in="SourceAlpha" type="matrix" values="0 0 0 0 0 0 0 0 0 0 0 0 0 0 0 0 0 0 127 0" result="hardAlpha"/>
<feOffset dy="3.2381"/>
<feGaussianBlur stdDeviation="1.61905"/>
<feComposite in2="hardAlpha" operator="out"/>
<feColorMatrix type="matrix" values="0 0 0 0 0 0 0 0 0 0 0 0 0 0 0 0 0 0 0.25 0"/>
<feBlend mode="normal" in2="BackgroundImageFix" result="effect1_dropShadow_877_3747"/>
<feBlend mode="normal" in="SourceGraphic" in2="effect1_dropShadow_877_3747" result="shape"/>
</filter>
</defs>
</svg>
