<svg width="197" height="39" viewBox="0 0 197 39" fill="none" xmlns="http://www.w3.org/2000/svg">
<path d="M22.9642 7.37555L25.2791 6.47945V24.1526L22.9642 24.9989V17.7554H15.9696V24.1526L13.6298 24.9989V17.7554H11.6136L12.3354 16.2868H13.6298V7.37555L15.9696 6.47945V16.2868H22.9642V7.37555ZM36.1753 11.9805C37.0714 11.9805 37.8181 12.2211 38.4155 12.7024C39.0129 13.1836 39.3116 13.8972 39.3116 14.8431C39.3116 15.6064 38.8968 16.461 38.067 17.4069C37.2539 18.3362 36.2914 19.1908 35.1796 19.9708C34.0844 20.7507 33.1468 21.2983 32.3668 21.6136C32.7817 22.2774 33.2546 22.742 33.7857 23.0075C34.3167 23.2565 34.939 23.3809 35.6525 23.3809C36.4491 23.3809 37.2373 23.1818 38.0172 22.7835C38.8138 22.3687 39.4693 21.8376 39.9837 21.1904L40.2824 21.7132C39.4693 22.7586 38.6063 23.5635 37.6937 24.1277C36.781 24.6753 35.6608 24.9491 34.3333 24.9491C33.321 24.9491 32.4166 24.7002 31.6201 24.2023C30.8235 23.7045 30.2012 23.0407 29.7532 22.211C29.3051 21.3647 29.0811 20.452 29.0811 19.4729C29.0811 18.2449 29.413 17.0501 30.0768 15.8885C30.7406 14.7269 31.6201 13.7893 32.7153 13.0757C33.8105 12.3456 34.9639 11.9805 36.1753 11.9805ZM34.8809 13.5487C34.1507 13.5487 33.4953 13.781 32.9144 14.2457C32.3502 14.7103 31.9022 15.3077 31.5703 16.0379C31.255 16.768 31.0974 17.5231 31.0974 18.303C31.0974 19.3319 31.338 20.2114 31.8192 20.9415C32.5162 20.6262 33.2712 20.1533 34.0844 19.5227C34.8975 18.8755 35.5862 18.1785 36.1504 17.4318C36.7146 16.685 36.9967 16.0047 36.9967 15.3907C36.9967 14.1627 36.2914 13.5487 34.8809 13.5487ZM49.7527 12.2045C50.5658 12.2045 51.3292 12.3788 52.0427 12.7273C52.7729 13.0757 53.3039 13.6068 53.6358 14.3203L51.8436 15.2911C51.5781 14.9094 51.213 14.5693 50.7484 14.2706C50.2837 13.9553 49.7859 13.7976 49.2549 13.7976C48.4086 13.7976 47.6701 14.0216 47.0395 14.4697C46.4089 14.9011 45.9277 15.4902 45.5958 16.237C45.2639 16.9837 45.098 17.8135 45.098 18.7262C45.098 20.0371 45.322 21.1075 45.77 21.9372C46.2181 22.7503 46.9234 23.1569 47.8858 23.1569C49.2466 23.1569 50.1842 22.6093 50.6986 21.514C51.213 20.4188 51.4702 19.224 51.4702 17.9296V16.8095L53.6607 15.8885V22.435C53.6607 22.6508 53.7188 22.8582 53.8349 23.0573C53.9511 23.2565 54.1253 23.356 54.3577 23.356C54.8389 23.356 55.2787 23.0241 55.6769 22.3604L56.0503 22.7586C55.8512 23.3228 55.5027 23.8041 55.0049 24.2023C54.507 24.584 54.0092 24.7748 53.5114 24.7748C52.7978 24.7748 52.2668 24.5093 51.9183 23.9783C51.5864 23.4473 51.4205 22.742 51.4205 21.8625H51.3707C50.9558 22.742 50.3916 23.4805 49.678 24.0779C48.9811 24.6587 48.2426 24.9491 47.4627 24.9491C46.0521 24.9491 44.9818 24.4679 44.2516 23.5054C43.5381 22.5263 43.1813 21.2236 43.1813 19.5974C43.1813 18.303 43.4717 17.0916 44.0525 15.9632C44.6333 14.8182 45.4216 13.9055 46.4172 13.2251C47.4295 12.5447 48.5413 12.2045 49.7527 12.2045ZM61.8051 22.5595C61.8051 22.7586 61.8632 22.9495 61.9794 23.132C62.0956 23.3145 62.2947 23.4058 62.5768 23.4058C62.8091 23.4058 63.0497 23.3062 63.2987 23.1071C63.5642 22.8914 63.7633 22.6674 63.8961 22.435L64.3192 22.8084C64.0371 23.356 63.6471 23.8207 63.1493 24.2023C62.6515 24.584 62.1536 24.7748 61.6558 24.7748C60.2619 24.7748 59.5649 23.9368 59.5649 22.2608V2.59634L61.8051 1.65046V22.5595ZM70.513 12.2045H73.9729L73.2262 13.7976H70.513V22.5595C70.513 22.8084 70.5876 23.0158 70.737 23.1818C70.8863 23.3311 71.0855 23.4058 71.3344 23.4058C71.6829 23.4058 72.1641 23.0822 72.7781 22.435L73.1266 22.8084C72.8113 23.439 72.4296 23.9119 71.9816 24.2272C71.5501 24.5259 71.1353 24.7085 70.737 24.7748C70.3553 24.8578 70.1645 24.8661 70.1645 24.7997C70.1811 24.7997 70.206 24.7914 70.2392 24.7748C70.2723 24.7748 70.3221 24.7748 70.3885 24.7748C68.9282 24.7748 68.198 23.9368 68.198 22.2608V13.7976H66.3312L67.1028 12.2045H68.198V6.47945L70.513 5.58335V12.2045ZM79.7155 19.3485H79.8151C79.981 18.4358 80.2714 17.4152 80.6863 16.2868C81.1177 15.1418 81.6902 14.1378 82.4038 13.2749C83.1174 12.412 83.9554 11.9805 84.9179 11.9805C85.4323 11.9805 85.8057 12.1714 86.038 12.553C86.2869 12.9181 86.428 13.333 86.4612 13.7976C86.5109 14.2623 86.5358 14.8762 86.5358 15.6396V22.5595C86.5358 22.7586 86.5939 22.9495 86.7101 23.132C86.8428 23.3145 87.042 23.4058 87.3075 23.4058C87.7389 23.4058 88.1787 23.0822 88.6267 22.435L88.9254 22.8084C88.6931 23.356 88.3197 23.8207 87.8053 24.2023C87.3075 24.584 86.8013 24.7748 86.2869 24.7748C84.9925 24.7748 84.3454 23.9368 84.3454 22.2608V15.6645C84.3454 15.4488 84.2956 15.2496 84.196 15.0671C84.113 14.8845 83.9637 14.7933 83.748 14.7933C82.9016 14.7933 82.1715 15.4571 81.5575 16.7846C80.9435 18.0956 80.4706 19.5476 80.1387 21.1407C79.8068 22.7171 79.6408 23.7875 79.6408 24.3517L77.4255 24.9989V2.59634L79.7155 1.65046V19.3485ZM102.427 23.3062C102.427 24.8661 102.112 26.3264 101.482 27.6872C100.868 29.0479 100.046 30.1349 99.0173 30.948C97.9884 31.7611 96.8932 32.1677 95.7316 32.1677C95.2835 32.1677 94.8604 32.1013 94.4621 31.9686C94.0638 31.8358 93.649 31.6118 93.2175 31.2965L94.9599 29.0811C95.3084 29.4296 95.715 29.7117 96.1796 29.9274C96.6609 30.1432 97.1089 30.251 97.5238 30.251C98.0382 30.251 98.5028 29.944 98.9177 29.33C99.3326 28.716 99.6562 27.8697 99.8885 26.7911C100.137 25.7124 100.262 24.4927 100.262 23.132C100.262 20.0454 100.27 18.0624 100.287 17.1829V15.6894H100.137C98.7766 21.8625 97.0093 24.9491 94.8355 24.9491C94.3542 24.9491 93.9974 24.8495 93.7651 24.6504C93.5328 24.4679 93.3751 24.1277 93.2922 23.6298C93.2092 23.132 93.1677 22.3769 93.1677 21.3647V14.3452C93.1677 14.0797 93.1013 13.8557 92.9686 13.6732C92.8358 13.4906 92.6699 13.3993 92.4707 13.3993C92.0559 13.3993 91.6161 13.7395 91.1515 14.4199L90.7532 14.0216C91.1183 13.2417 91.4751 12.7107 91.8236 12.4286C92.1886 12.1465 92.7114 12.0054 93.3917 12.0054C94.0555 12.0054 94.5534 12.2211 94.8852 12.6526C95.2171 13.0675 95.3831 13.6814 95.3831 14.4946V21.29C95.3831 21.904 95.5573 22.211 95.9058 22.211C96.3207 22.211 96.8517 21.6468 97.4989 20.5184C98.1461 19.3899 98.7186 18.0873 99.2164 16.6104C99.7142 15.1169 99.9631 13.9055 99.9631 12.9762L102.427 11.8561V23.3062ZM114.541 15.2413C115.487 15.0588 116.267 14.9675 116.881 14.9675C118.291 14.9675 119.486 15.316 120.465 16.013C121.461 16.6933 121.958 17.7056 121.958 19.0498C121.958 20.593 121.378 21.9206 120.216 23.0324C119.071 24.1277 117.669 24.9574 116.009 25.5216C114.35 26.0858 112.765 26.3845 111.255 26.4177L111.106 25.8203C113.246 25.3722 115.146 24.6089 116.806 23.5303C118.465 22.435 119.295 20.9996 119.295 19.224C119.295 18.5768 119.096 17.996 118.698 17.4816C118.299 16.9672 117.785 16.5689 117.154 16.2868C116.54 16.0047 115.893 15.8636 115.213 15.8636C114.051 15.8636 112.914 16.0711 111.803 16.4859L111.604 15.8138C113.047 15.1998 114.333 14.395 115.462 13.3993C116.59 12.4037 117.154 11.3001 117.154 10.0887C117.154 9.45816 116.955 8.95203 116.557 8.57035C116.175 8.18868 115.644 7.99784 114.964 7.99784C113.985 7.99784 113.197 8.36292 112.599 9.09308C112.002 9.80664 111.579 10.6613 111.33 11.6569C111.081 12.636 110.956 13.5736 110.956 14.4697V24.0032L108.641 24.8495V15.8387C108.641 14.0631 108.99 12.4866 109.687 11.1093C110.4 9.73196 111.388 8.66162 112.649 7.89828C113.91 7.11834 115.346 6.72837 116.955 6.72837C117.752 6.72837 118.424 6.9358 118.971 7.35066C119.519 7.76552 119.793 8.35462 119.793 9.11797C119.793 10.2132 119.237 11.3167 118.125 12.4286C117.03 13.5238 115.819 14.4282 114.491 15.1418L114.541 15.2413ZM127.278 9.69048L126.457 9.98918L125.436 4.81171L128.125 3.89071L127.278 9.69048ZM128.1 22.5595C128.1 22.8084 128.158 23.0158 128.274 23.1818C128.407 23.3311 128.589 23.4058 128.822 23.4058C129.004 23.4058 129.203 23.3228 129.419 23.1569C129.651 22.9909 129.884 22.7503 130.116 22.435L130.514 22.8084C130.133 23.522 129.668 24.0281 129.12 24.3268C128.589 24.6255 128.1 24.7748 127.652 24.7748C127.054 24.7748 126.59 24.584 126.258 24.2023C125.942 23.8207 125.785 23.1735 125.785 22.2608V13.2002L128.1 12.3041V22.5595ZM136.735 12.2045H140.195L139.448 13.7976H136.735V22.5595C136.735 22.8084 136.809 23.0158 136.959 23.1818C137.108 23.3311 137.307 23.4058 137.556 23.4058C137.905 23.4058 138.386 23.0822 139 22.435L139.348 22.8084C139.033 23.439 138.651 23.9119 138.203 24.2272C137.772 24.5259 137.357 24.7085 136.959 24.7748C136.577 24.8578 136.386 24.8661 136.386 24.7997C136.403 24.7997 136.428 24.7914 136.461 24.7748C136.494 24.7748 136.544 24.7748 136.61 24.7748C135.15 24.7748 134.42 23.9368 134.42 22.2608V13.7976H132.553L133.324 12.2045H134.42V6.47945L136.735 5.58335V12.2045ZM149.648 11.9805C150.544 11.9805 151.291 12.2211 151.889 12.7024C152.486 13.1836 152.785 13.8972 152.785 14.8431C152.785 15.6064 152.37 16.461 151.54 17.4069C150.727 18.3362 149.765 19.1908 148.653 19.9708C147.557 20.7507 146.62 21.2983 145.84 21.6136C146.255 22.2774 146.728 22.742 147.259 23.0075C147.79 23.2565 148.412 23.3809 149.126 23.3809C149.922 23.3809 150.71 23.1818 151.49 22.7835C152.287 22.3687 152.942 21.8376 153.457 21.1904L153.755 21.7132C152.942 22.7586 152.079 23.5635 151.167 24.1277C150.254 24.6753 149.134 24.9491 147.806 24.9491C146.794 24.9491 145.89 24.7002 145.093 24.2023C144.297 23.7045 143.674 23.0407 143.226 22.211C142.778 21.3647 142.554 20.452 142.554 19.4729C142.554 18.2449 142.886 17.0501 143.55 15.8885C144.214 14.7269 145.093 13.7893 146.188 13.0757C147.284 12.3456 148.437 11.9805 149.648 11.9805ZM148.354 13.5487C147.624 13.5487 146.968 13.781 146.388 14.2457C145.823 14.7103 145.375 15.3077 145.043 16.0379C144.728 16.768 144.57 17.5231 144.57 18.303C144.57 19.3319 144.811 20.2114 145.292 20.9415C145.989 20.6262 146.744 20.1533 147.557 19.5227C148.371 18.8755 149.059 18.1785 149.623 17.4318C150.188 16.685 150.47 16.0047 150.47 15.3907C150.47 14.1627 149.765 13.5487 148.354 13.5487Z" fill="#32794F"/>
<path d="M152.233 29.204C154.406 29.6807 156.155 28.8899 158.569 27.7643H158.568C157.896 25.8304 157.354 23.8539 156.945 21.8477C154.516 23.5335 147.625 27.665 152.233 29.2041L152.233 29.204Z" fill="#32794F"/>
<path d="M159.276 27.4091C168.093 21.6969 179.832 18.5972 190.12 21.7126C192.738 9.41846 186.094 4.48641 177.03 6.73786C175.946 7.76924 176.47 11.7904 174.171 12.0366C171.401 11.8167 171.846 9.91102 172.197 7.1097C169.884 6.35175 167.814 6.05676 166.005 6.16382C168.257 12.6227 166.005 16.0601 157.18 17.1862C157.17 20.1973 157.85 23.671 159.276 27.4092L159.276 27.4091Z" fill="url(#paint0_linear_819_2652)"/>
<path d="M179.14 28.1419C172.334 28.189 166.737 31.3306 162.182 33.8595C165.355 39.9176 170.235 38.7864 173.92 37.09C180.203 40.2317 184.56 38.3413 188.021 28.9326C185.094 28.3771 182.12 28.1123 179.141 28.1419H179.14Z" fill="url(#paint1_linear_819_2652)"/>
<path d="M174.17 11.2506C174.473 11.2506 174.725 11.1564 174.793 10.9259C176.552 2.95189 180.364 2.12462 180.364 2.12462L178.27 -0.000976562C172.191 2.34453 171.584 12.0416 174.17 11.2506Z" fill="#0A6835"/>
<path d="M190.318 24.0988C190.318 24.3158 190.142 24.4914 189.926 24.4914C189.709 24.4914 189.533 24.3158 189.533 24.0988V22.376C188.485 22.1405 187.381 21.9257 186.187 21.7529C186.066 22.1142 186.516 24.0568 185.794 24.0042C185.061 24.067 185.522 21.9936 185.401 21.6426C184.207 21.4962 182.935 21.3862 181.59 21.3285C181.474 21.6897 181.925 23.6587 181.197 23.606C180.474 23.6638 180.925 21.6477 180.804 21.2971V21.2975C179.708 21.2697 178.61 21.2978 177.516 21.3811C177.354 21.7321 177.914 25.3395 177.123 25.2295C176.328 25.35 176.888 21.7843 176.731 21.4545C175.605 21.575 174.489 21.7708 173.39 22.041V23.8631C173.39 24.0797 173.214 24.2558 172.998 24.2558C172.781 24.2558 172.605 24.0797 172.605 23.8631V22.2401C171.591 22.514 170.591 22.8391 169.61 23.2138V25.5385C169.61 25.7554 169.434 25.9311 169.217 25.9311C169.001 25.9311 168.824 25.7554 168.824 25.5385V23.4757C167.678 23.9417 166.583 24.4442 165.536 24.9625V27.1827C165.536 27.3997 165.361 27.5753 165.144 27.5753C164.927 27.5753 164.751 27.3997 164.751 27.1827V25.3814C163.631 25.9573 162.61 26.5125 161.562 27.0779V28.9523C161.562 29.1692 161.387 29.3449 161.17 29.3449C160.953 29.3449 160.777 29.1692 160.777 28.9523V27.4969C159.85 27.9943 158.966 28.4497 158.112 28.8424V32.4341C156.934 34.3139 157.405 29.4706 157.327 29.1879C156.386 29.6021 155.398 29.8961 154.384 30.0623C154.269 30.4184 154.709 32.3033 153.991 32.2562C153.285 32.3033 153.709 30.4812 153.599 30.1306H153.598C152.564 30.1901 151.538 29.921 150.666 29.3607C148.818 46.8543 166.898 25.9312 179.113 27.3552C187.397 27.2347 194.005 29.4808 197 30.9681V24.989C196.088 24.5354 195.153 24.1296 194.199 23.7742V25.1304C194.199 25.3473 194.023 25.523 193.806 25.523C193.589 25.523 193.413 25.3473 193.413 25.1304V23.4759C192.487 23.1567 191.445 22.8371 190.271 22.5493L190.318 24.0988Z" fill="#0A6835"/>
<defs>
<linearGradient id="paint0_linear_819_2652" x1="173.938" y1="6.14258" x2="173.887" y2="36.8625" gradientUnits="userSpaceOnUse">
<stop stop-color="#DC2F39"/>
<stop offset="0.459913" stop-color="#DC2F39" stop-opacity="0.77"/>
<stop offset="1" stop-color="#DC2F39" stop-opacity="0"/>
</linearGradient>
<linearGradient id="paint1_linear_819_2652" x1="175.101" y1="28.1396" x2="175.101" y2="38.4931" gradientUnits="userSpaceOnUse">
<stop stop-color="#DC2F39" stop-opacity="0.76"/>
<stop offset="0.563969" stop-color="#DC2F39" stop-opacity="0.603917"/>
<stop offset="1" stop-color="#DC2F39" stop-opacity="0.3"/>
</linearGradient>
</defs>
</svg>
