<svg width="32" height="32" viewBox="0 0 32 32" fill="none" xmlns="http://www.w3.org/2000/svg">
<path d="M18.5382 4.46605C18.8765 4.34292 19.2516 4.29155 19.648 4.32817C20.0444 4.36479 20.4392 4.45523 20.8391 4.61829C21.5141 4.89405 22.0653 5.2681 22.5088 5.75581C22.9489 6.23412 23.2934 6.80046 23.5328 7.45824C23.8817 8.41673 24.029 9.52308 23.9618 10.7713C23.8947 12.0196 23.6678 13.3259 23.2778 14.6811C22.8818 16.049 22.3807 17.3913 21.7685 18.7209C21.1435 20.0445 20.4373 21.2912 19.6499 22.4611C18.8591 23.6215 18.0136 24.6316 17.1159 25.4691C16.2089 26.3101 15.2667 26.9084 14.2894 27.2641C13.6504 27.4967 12.9986 27.6062 12.3527 27.5859C11.6974 27.569 11.0412 27.4035 10.3901 27.0765C9.57915 26.6905 9.04844 26.1388 8.79534 25.4434C8.69958 25.1803 8.66019 24.8966 8.68745 24.6207C8.71129 24.3353 8.80177 24.0576 8.98452 23.7996L11.2638 20.5011C11.4372 20.2464 11.6089 20.0456 11.7848 19.8858C11.9514 19.7294 12.1316 19.6106 12.3101 19.5456C12.5357 19.4635 12.7851 19.4472 13.0491 19.5001C13.3097 19.5436 13.6002 19.64 13.9079 19.7835L14.9101 20.2275C15.0511 20.2932 15.1904 20.2957 15.3408 20.241C15.4159 20.2136 15.4783 20.1803 15.5466 20.1341C15.6115 20.0786 15.6577 20.0299 15.7072 19.9906C15.9557 19.7085 16.2538 19.2702 16.5919 18.6789C16.9267 18.0781 17.2605 17.4458 17.5807 16.7759C17.8941 16.0872 18.1767 15.431 18.4182 14.779C18.6539 14.1399 18.7887 13.6332 18.8416 13.2522C18.8432 13.1983 18.8509 13.1317 18.8552 13.0557C18.856 12.9702 18.838 12.8916 18.8073 12.8071C18.7491 12.6473 18.6483 12.5457 18.5073 12.4799L17.5426 12.0223C17.2221 11.8729 16.9615 11.7123 16.7701 11.5372C16.5599 11.369 16.4154 11.1768 16.3299 10.9419C16.2649 10.7633 16.2341 10.5617 16.2434 10.3242C16.2528 10.0867 16.2963 9.82609 16.3705 9.53302L17.4467 5.61889C17.5269 5.31301 17.6627 5.07204 17.86 4.88317C18.0607 4.7037 18.2751 4.56181 18.5382 4.46605Z" stroke="#292D32" stroke-width="1.5" stroke-miterlimit="10"/>
</svg>
