<svg width="60" height="60" viewBox="0 0 60 60" fill="none" xmlns="http://www.w3.org/2000/svg">
<g filter="url(#filter0_d_877_3753)">
<circle cx="30.0478" cy="26.3095" r="26.3095" fill="#F2FFF5"/>
</g>
<g clip-path="url(#clip0_877_3753)">
<path d="M30.0477 7.75781C19.8016 7.75781 11.4961 16.0634 11.4961 26.3094C11.4961 34.1697 16.3863 40.8817 23.2875 43.5846C23.1261 42.1172 22.9777 39.865 23.3524 38.264C23.6901 36.817 25.5267 29.042 25.5267 29.042C25.5267 29.042 24.972 27.9308 24.972 26.289C24.972 23.7085 26.4672 21.7847 28.3279 21.7847C29.9104 21.7847 30.6747 22.9738 30.6747 24.3967C30.6747 25.9885 29.6618 28.3686 29.1387 30.5726C28.7008 32.4203 30.0644 33.9248 31.8861 33.9248C35.1828 33.9248 37.7169 30.4483 37.7169 25.4301C37.7169 20.9888 34.526 17.8833 29.9679 17.8833C24.69 17.8833 21.5919 21.8422 21.5919 25.9347C21.5919 27.5282 22.2059 29.2387 22.9721 30.1681C23.1242 30.3518 23.1446 30.5132 23.1001 30.7006C22.9591 31.2868 22.6475 32.5464 22.5862 32.8043C22.5065 33.1438 22.3172 33.2162 21.9666 33.051C19.6495 31.9713 18.2006 28.5838 18.2006 25.8642C18.2006 20.013 22.4527 14.6367 30.4595 14.6367C36.8951 14.6367 41.8966 19.2227 41.8966 25.3521C41.8966 31.7469 37.8653 36.8912 32.2702 36.8912C30.3909 36.8912 28.6229 35.9136 28.0181 34.7615C28.0181 34.7615 27.0868 38.303 26.8624 39.1731C26.4431 40.7833 25.3133 42.8055 24.5564 44.0373C26.291 44.5697 28.135 44.861 30.0477 44.861C40.2919 44.861 48.5993 36.5536 48.5993 26.3094C48.5993 16.0652 40.2937 7.75781 30.0477 7.75781Z" fill="#32794F"/>
</g>
<defs>
<filter id="filter0_d_877_3753" x="0.500186" y="0" width="59.0953" height="59.0953" filterUnits="userSpaceOnUse" color-interpolation-filters="sRGB">
<feFlood flood-opacity="0" result="BackgroundImageFix"/>
<feColorMatrix in="SourceAlpha" type="matrix" values="0 0 0 0 0 0 0 0 0 0 0 0 0 0 0 0 0 0 127 0" result="hardAlpha"/>
<feOffset dy="3.2381"/>
<feGaussianBlur stdDeviation="1.61905"/>
<feComposite in2="hardAlpha" operator="out"/>
<feColorMatrix type="matrix" values="0 0 0 0 0 0 0 0 0 0 0 0 0 0 0 0 0 0 0.25 0"/>
<feBlend mode="normal" in2="BackgroundImageFix" result="effect1_dropShadow_877_3753"/>
<feBlend mode="normal" in="SourceGraphic" in2="effect1_dropShadow_877_3753" result="shape"/>
</filter>
<clipPath id="clip0_877_3753">
<rect width="44.5238" height="44.5238" fill="white" transform="translate(7.78516 4.04688)"/>
</clipPath>
</defs>
</svg>
