<svg width="18" height="17" viewBox="0 0 18 17" fill="none" xmlns="http://www.w3.org/2000/svg">
<path d="M5.79315 7.12517L7.93515 8.65517C8.24589 8.87718 8.61825 8.99653 9.00015 8.99653C9.38205 8.99653 9.75441 8.87718 10.0652 8.65517L12.2072 7.12517M1.40415 11.1262C0.97596 9.40168 0.97596 7.59865 1.40415 5.87417C1.67882 4.76749 2.25685 3.75942 3.07322 2.96337C3.88959 2.16731 4.91191 1.61486 6.02515 1.36817L6.40415 1.28417C8.11408 0.905278 9.88622 0.905278 11.5962 1.28417L11.9752 1.36817C13.0882 1.61503 14.1103 2.16755 14.9265 2.96359C15.7427 3.75964 16.3206 4.76762 16.5952 5.87417C17.0233 7.59865 17.0233 9.40168 16.5952 11.1262C16.3206 12.2327 15.7427 13.2407 14.9265 14.0367C14.1103 14.8328 13.0882 15.3853 11.9752 15.6322L11.5962 15.7162C9.88615 16.0952 8.11415 16.0952 6.40415 15.7162L6.02515 15.6322C4.91209 15.3853 3.88999 14.8328 3.07381 14.0367C2.25762 13.2407 1.67874 12.2327 1.40415 11.1262Z" stroke="#3A3A97" stroke-width="1.5" stroke-linecap="round"/>
</svg>
