<svg width="49" height="73" viewBox="0 0 49 73" fill="none" xmlns="http://www.w3.org/2000/svg">
<path d="M1.65434 60.4013C3.58224 63.7502 6.24619 68.1931 8.5175 71.078M8.5175 71.078C8.77847 71.41 9.80938 68.4006 9.84737 68.2553C10.6892 65.0706 11.1791 61.7938 11.6239 58.4332M8.5175 71.078C1.07969 50.6443 4.35623 29.4668 13.989 21.8763C14.943 21.1241 15.9835 20.3061 17.0822 19.6234M17.0822 19.6234C18.8335 18.5361 20.7354 17.7905 22.6868 18.1931C24.4865 18.5651 26.7896 20.0488 27.6242 22.4019C29.1826 26.7976 25.9318 30.8168 22.5959 29.5252C19.6648 28.3914 16.8819 23.5007 17.0822 19.6234ZM17.0822 19.6234C17.0867 19.5421 17.0925 19.461 17.0997 19.3799C18.766 -0.135682 36.0338 -2.47705 46.8415 6.63008" stroke="#3A3A97" stroke-width="3" stroke-miterlimit="1.5" stroke-linecap="round" stroke-linejoin="round"/>
</svg>
