<svg width="42" height="42" viewBox="0 0 26 26" fill="none" xmlns="http://www.w3.org/2000/svg">
<path d="M13 25.1055C19.6211 25.1055 25.1055 19.6328 25.1055 13C25.1055 6.37891 19.6211 0.894531 12.9883 0.894531C6.36719 0.894531 0.894531 6.37891 0.894531 13C0.894531 19.6328 6.37891 25.1055 13 25.1055ZM13 14.9219C10.7031 14.9102 8.92188 12.9883 8.92188 10.457C8.91016 8.06641 10.7148 6.07422 13 6.07422C15.2734 6.07422 17.0664 8.06641 17.0664 10.457C17.0664 12.9883 15.2852 14.9453 13 14.9219ZM13 23.125C10.375 23.125 7.58594 22.0352 5.81641 20.125C7.15234 18.1094 9.83594 16.9492 13 16.9492C16.1289 16.9492 18.8242 18.0859 20.1719 20.125C18.4023 22.0352 15.625 23.125 13 23.125Z" fill="#322ED6"/>
</svg>
